<svg viewBox="0 0 16 16">
	<rect width="16" height="16" fill="red" />
	<g transform="translate(-2.25,-8) scale(0.205)">
		<path d="M29 69.9l12.7-4.8L50.8 71l-2.4-6.3 3.2-3.2 6.8-2.6 1.7 4.5c1.3-2.5 4.2-5.8 7.4-7.8.8-.6 1.8-1.1 2.9-1.5 7.5-2.8 14.9 1.5 17.6 8.7 1.6 4.2 1.3 8.7-.7 12.2-.1.3-.2.5-.3.7-3.1 5.2-6.3 7.3-9.4 8.4-3.8 1.4-7.2 1-9.7 0l.4 1.1-3.2 3.2-5.7 2L50 84.2 52.5 91h.1l-3.2 3.2-6.9 2.6-1.3-3.6c-.8 1.3-2.7 3-4.3 4.7-2.5 2.6-6.2 4.1-9.7 4.3-5.4.3-9.3-3.1-11.4-8.8L10.4 78.9l3.2-3.2 6.8-2.6L26 87.9c.7 1.9 2 3.6 4.2 3.7.6 0 1.5-.1 1.7-.9 0-.9-.2-1.9-.5-2.8L25.9 73.1Zm40.1-4.4c0-.1 0-.1 0-.2.5-1.6 2.2-2.1 4.2-1.5 2 .5 3.6 2.4 4.5 4.7.2.4.3.9.4 1.4.4 1.8.2 3.1-.6 3.8-.9.9-2.5.9-4.4.1-1.6-.8-2.8-2.4-3.5-4.3-.6-1.3-.7-2.7-.6-4Z" style="clip-rule:evenodd;fill-rule:evenodd" />

		<path fill="yellow" d="m15.5 76.6 4-1.5 5 13.4c1.7 4.4 5.2 5.3 8.1 4.2s5-4.1 3.3-8.5l-5-13.4 4-1.5 5 13.2c2 5.3 2 11-5.7 14 0 0-.1 0-.1 0s-.1 0-.1 0c-7.6 2.7-11.6-1.6-13.6-7z" />
		<path fill="yellow"  d="M53.6 62.4l3.9-1.5 8.8 23.4-3.5 1.2L44.3 73.3l6.3 16.8-4 1.5-8.7-23.3 3.8-1.4L59.6 78.6z" />
		<path fill="yellow"  d="m72.3 59.3c4.5-1.7 8.4 1 10.1 5.4 1.7 4.5.4 9-4 10.7-4.5 1.7-8.5-1-10.1-5.4-1.7-4.4-.4-9 4.1-10.7zm-1.4-3.7c6.6-2.5 13.2 1.2 15.7 7.8s-.2 13.7-6.7 16.2c-6.6 2.4-13.2-1.2-15.7-7.8s.1-13.7 6.7-16.2z" style="clip-rule:evenodd;fill-rule:evenodd" />
	</g>
</svg>
