<svg width="22" height="22" viewBox="0 0 22 22" fill="none" xmlns="http://www.w3.org/2000/svg">
<path d="M17.4167 2.75C18.4292 2.75 19.25 3.57081 19.25 4.58333V17.4167C19.25 18.4292 18.4292 19.25 17.4167 19.25H4.58333C3.57081 19.25 2.75 18.4292 2.75 17.4167V4.58333C2.75 3.57081 3.57081 2.75 4.58333 2.75H17.4167ZM4.58333 17.4167H17.4167V4.58333H4.58333V17.4167ZM12.6955 11.4888C12.8788 11.2443 13.2462 11.2443 13.4295 11.4888L15.9504 14.8502C16.1766 15.1523 15.9609 15.5833 15.5833 15.5833H6.41667C6.0391 15.5833 5.82338 15.1523 6.04964 14.8502L7.88298 12.4054C8.06631 12.161 8.43369 12.161 8.61702 12.4054L10.3125 14.6667L12.6955 11.4888Z" fill="black"/>
</svg>
