<svg width="24" height="24" viewBox="0 0 24 24" fill="none" xmlns="http://www.w3.org/2000/svg">
<g clip-path="url(#clip0_1_1067)">
<path d="M9.96415 18.858L13.6978 22.5746C13.9269 22.8093 14.2134 22.9802 14.5288 23.0704C14.8442 23.1605 15.1777 23.1667 15.4962 23.0884C15.8167 23.0138 16.1127 22.8581 16.3557 22.6361C16.5986 22.4141 16.7804 22.1335 16.8835 21.821L23.0149 3.44362C23.143 3.09929 23.1694 2.72546 23.0911 2.36655C23.0127 2.00763 22.8331 1.67877 22.5733 1.41902C22.3136 1.15926 21.9847 0.979557 21.6259 0.901259C21.2669 0.82296 20.893 0.849362 20.5488 0.977327L2.17133 7.10882C1.84805 7.21923 1.56013 7.41399 1.33732 7.67294C1.11451 7.93188 0.964886 8.24563 0.903923 8.58175C0.840996 8.88746 0.855004 9.204 0.944688 9.50295C1.03437 9.80189 1.19692 10.0739 1.41774 10.2945L6.11056 14.9873L5.95641 20.9304L9.96415 18.858Z" stroke="black" stroke-width="2.4286" stroke-linecap="round" stroke-linejoin="round"/>
<path d="M22.4673 1.354L6.11084 14.9872" stroke="black" stroke-width="2.4286" stroke-linecap="round" stroke-linejoin="round"/>
</g>
<defs>
<clipPath id="clip0_1_1067">
<rect width="24" height="24" fill="white"/>
</clipPath>
</defs>
</svg>
