<svg width="18" height="18" viewBox="0 0 18 18" fill="none" xmlns="http://www.w3.org/2000/svg">
<g clip-path="url(#clip0_1_1055)">
<path d="M9 0C13.9706 0 18 4.02944 18 9C18 13.9706 13.9706 18 9 18C4.02944 18 0 13.9706 0 9C0 4.02944 4.02944 0 9 0ZM9 1.5C4.85786 1.5 1.5 4.85786 1.5 9C1.5 13.1421 4.85786 16.5 9 16.5C13.1421 16.5 16.5 13.1421 16.5 9C16.5 4.85786 13.1421 1.5 9 1.5ZM14.25 9C14.6642 9 15 9.33578 15 9.75C15 11.0904 14.2778 12.4046 13.2143 13.3631C12.1407 14.3307 10.6535 15 9 15C7.34652 15 5.85929 14.3307 4.78565 13.3631C3.72221 12.4046 3 11.0904 3 9.75C3 9.33578 3.33579 9 3.75 9H14.25ZM4.62012 10.5C4.80554 11.1014 5.20288 11.72 5.7898 12.249C6.61628 12.994 7.75403 13.5 9 13.5C10.246 13.5 11.3837 12.994 12.2102 12.249C12.7971 11.72 13.1945 11.1014 13.3799 10.5H4.62012ZM7.5 6.75H6V3.75H7.5V6.75ZM12 6.75H10.5V3.75H12V6.75Z" fill="black"/>
</g>
<defs>
<clipPath id="clip0_1_1055">
<rect width="18" height="18" fill="white"/>
</clipPath>
</defs>
</svg>
