<svg width="45" height="45" viewBox="0 0 45 45" fill="none" xmlns="http://www.w3.org/2000/svg">
<path d="M43.125 15C44.1606 15 45 15.8395 45 16.875V35.6251C45 36.6606 44.1606 37.5001 43.125 37.5001H41.25V43.1251C41.25 43.8833 40.7933 44.567 40.0928 44.8572C39.3921 45.1475 38.5856 44.987 38.0494 44.4507L31.0986 37.5001H20.625C19.5894 37.5001 18.75 36.6606 18.75 35.6251V16.875C18.75 15.8395 19.5894 15 20.625 15H43.125ZM35.625 0C36.6606 0 37.5 0.839467 37.5 1.875V11.25H18.75C16.6875 11.25 15 12.9375 15 15V26.2501H13.9014L6.95068 33.2007C6.41443 33.7369 5.60786 33.8974 4.90723 33.6072C4.20673 33.3169 3.75 32.6333 3.75 31.8751V26.2501H1.875C0.839466 26.2501 0 25.4106 0 24.375V1.875C0 0.839467 0.839466 0 1.875 0H35.625Z" fill="black"/>
</svg>
