<svg width="24" height="24" viewBox="0 0 24 24" fill="none" xmlns="http://www.w3.org/2000/svg">
<path d="M11.2 11.2C8.7 6.4 5.1 4.35 3.3 5.95c-1.84 1.64-.25 5.54 3.96 6.4-3.48 1.2-4.16 4.67-2.15 5.93 1.88 1.18 4.43-.84 6.09-4.2v-2.88Z" fill="#8BC6FF"/>
<path d="M12.8 11.2c2.5-4.8 6.1-6.85 7.9-5.25 1.84 1.64.25 5.54-3.96 6.4 3.48 1.2 4.16 4.67 2.15 5.93-1.88 1.18-4.43-.84-6.09-4.2v-2.88Z" fill="#AB7FE8"/>
<path d="M11.2 11.2C8.7 6.4 5.1 4.35 3.3 5.95c-1.84 1.64-.25 5.54 3.96 6.4-3.48 1.2-4.16 4.67-2.15 5.93 1.88 1.18 4.43-.84 6.09-4.2m1.6-2.88c2.5-4.8 6.1-6.85 7.9-5.25 1.84 1.64.25 5.54-3.96 6.4 3.48 1.2 4.16 4.67 2.15 5.93-1.88 1.18-4.43-.84-6.09-4.2" stroke="#7A3810" stroke-width="1.2"/>
<path d="M12 10.1v7.5" stroke="#7A3810" stroke-width="2"/>
<path d="M10.35 8.42c.45-.6.94-.9 1.65-.9s1.2.3 1.65.9" stroke="#7A3810" stroke-width="1.5"/>
</svg>
