<svg width="60" height="76" viewBox="0 0 60 76" fill="none" xmlns="http://www.w3.org/2000/svg">
<path fill-rule="evenodd" clip-rule="evenodd" d="M39.0305 35.6489C38.8077 35.6113 38.4483 35.6419 38.0111 35.8032C37.5152 35.9862 37.2411 36.2339 37.1099 36.4479C36.9941 36.6368 36.9244 36.8992 37.032 37.3116C37.8838 40.5744 37.9911 44.3942 38.0027 45.7686C38.0181 47.6074 35.7712 48.0464 34.7128 46.8561C32.8029 44.7079 30.4774 43.3559 27.7967 43.1195C26.9371 43.0438 26.2322 43.6866 26.259 44.5239C26.2786 45.1344 26.4337 45.5039 26.6117 45.7358C26.7831 45.9592 27.0909 46.2061 27.7045 46.3828C29.4431 46.8837 30.9088 47.7855 31.9276 49.0516C32.9537 50.3266 33.4441 51.871 33.3831 53.4996C33.297 55.8028 31.3823 57.3627 29.2776 57.5309C26.9617 57.7161 25.0028 56.7169 23.7729 55.1139C22.5751 53.5524 22.1155 51.4934 22.4958 49.506C22.6067 48.9265 22.4872 48.677 22.4264 48.5866C22.3619 48.4906 22.1744 48.2945 21.6234 48.1513C21.0277 47.9965 20.2839 48.298 19.9553 49.121C18.527 52.6991 18.9418 55.9527 20.5404 58.783C21.5707 60.6071 23.8929 62.6106 26.7437 64.2856C29.5668 65.9442 32.6091 67.1054 34.8161 67.4247C36.5742 67.6791 38.5601 66.8657 40.5118 65.2984C42.4224 63.7641 44.0241 61.7223 44.9502 60.1182C49.0621 52.9962 50.32 45.8274 49.6058 42.0308C49.5701 41.8407 49.4696 41.6945 49.2769 41.5685C49.0592 41.4261 48.7512 41.3365 48.4489 41.343C47.9021 41.3548 47.6413 41.4978 47.5003 41.626C47.3487 41.764 47.1639 42.0431 47.08 42.6249C46.8589 44.1566 46.3391 45.6352 46.0233 46.4431C45.3191 48.2443 42.7069 47.7195 42.4194 45.9226C41.9555 43.022 41.1847 38.8928 39.3605 35.8772C39.2973 35.7726 39.2451 35.7319 39.2165 35.7133C39.1842 35.6922 39.1291 35.6656 39.0305 35.6489ZM39.4544 32.4337C40.5268 32.6149 41.5564 33.2072 42.2289 34.3189C43.2702 36.0403 44.0066 38.0043 44.5418 39.8973C44.7141 39.6441 44.9163 39.4082 45.1516 39.194C45.9808 38.4393 47.0576 38.1049 48.2202 38.0799C50.0075 38.0415 52.4339 39.0962 52.9024 41.5876C53.8055 46.3889 52.2179 54.3212 47.8908 61.8159C46.8028 63.7004 44.9644 66.0486 42.7147 67.8551C40.5061 69.6286 37.6115 71.1067 34.4743 70.6528C31.6776 70.2482 28.192 68.8699 25.1108 67.0595C22.0574 65.2656 19.0989 62.8706 17.6201 60.2526C15.5344 56.5599 15.038 52.2903 16.8233 47.8181C17.6354 45.7838 19.8474 44.3506 22.3467 45.0002C22.5577 45.055 22.7665 45.1203 22.9711 45.197C22.9366 44.9581 22.9162 44.7169 22.9085 44.4749C22.8204 41.7272 25.1478 39.6223 27.9454 39.869C30.4098 40.0863 32.6009 40.9827 34.4883 42.329C34.3656 40.947 34.1528 39.3845 33.7852 37.9769C33.4734 36.7823 33.6245 35.637 34.2105 34.6811C34.7811 33.7504 35.6898 33.1163 36.6981 32.7442C37.4767 32.4569 38.4532 32.2646 39.4544 32.4337ZM25.8917 49.136C25.8985 49.5045 25.8631 49.8765 25.7924 50.2459C25.5684 51.4168 25.8644 52.5082 26.4254 53.2395C26.9545 53.9293 27.7577 54.3652 28.8505 54.2778C29.5771 54.2197 30.0152 53.7108 30.0332 53.2304C30.0669 52.3303 29.8028 51.5832 29.3254 50.9899C28.8408 50.3876 28.0541 49.8443 26.8915 49.5094C26.5428 49.4089 26.2084 49.2848 25.8917 49.136Z" fill="black"/>
<rect x="-0.366143" y="9.04439" width="25" height="31" rx="4.5" transform="rotate(-12.5 -0.366143 9.04439)" fill="black" stroke="white"/>
<rect x="7.04468" y="16.885" width="7.5" height="6.5" transform="rotate(-12.5 7.04468 16.885)" fill="#EA5A2A"/>
<rect x="8.34326" y="22.7429" width="8" height="6" transform="rotate(-12.5 8.34326 22.7429)" fill="#489E52"/>
<path d="M13.8787 15.3699L21.2009 13.7466L22.6077 20.0925L15.2855 21.7158L13.8787 15.3699Z" fill="#F4C745"/>
<path d="M15.1772 21.2278L22.4995 19.6045L23.7981 25.4623L16.4759 27.0856L15.1772 21.2278Z" fill="#3684CC"/>
<rect x="35.3435" y="-0.366143" width="25" height="31" rx="4.5" transform="rotate(12.5 35.3435 -0.366143)" fill="black" stroke="white"/>
<rect x="38.7463" y="9.87183" width="7.5" height="6.5" transform="rotate(12.5 38.7463 9.87183)" fill="#EA5A2A"/>
<rect x="37.4478" y="15.7295" width="8" height="6" transform="rotate(12.5 37.4478 15.7295)" fill="#489E52"/>
<path d="M45.5803 11.387L52.9025 13.0103L51.4957 19.3562L44.1735 17.7329L45.5803 11.387Z" fill="#F4C745"/>
<path d="M44.2817 17.2446L51.604 18.8679L50.3053 24.7257L42.9831 23.1024L44.2817 17.2446Z" fill="#3684CC"/>
</svg>
