<svg width="130" height="197" viewBox="0 0 130 197" fill="none" xmlns="http://www.w3.org/2000/svg">
<mask id="path-1-outside-1_2_289" maskUnits="userSpaceOnUse" x="1" y="6" width="38" height="26" fill="black">
<rect fill="white" x="1" y="6" width="38" height="26"/>
<path d="M9.125 27.0909V11.7273H12.1818V27.0909H9.125ZM2.97727 20.9318V17.8864H18.3409V20.9318H2.97727ZM22.6136 31V28.4545L30.4886 20.2955C31.3295 19.4091 32.0227 18.6326 32.5682 17.9659C33.1212 17.2917 33.5341 16.6515 33.8068 16.0455C34.0795 15.4394 34.2159 14.7955 34.2159 14.1136C34.2159 13.3409 34.0341 12.6742 33.6705 12.1136C33.3068 11.5455 32.8106 11.1098 32.1818 10.8068C31.553 10.4962 30.8447 10.3409 30.0568 10.3409C29.2235 10.3409 28.4962 10.5114 27.875 10.8523C27.2538 11.1932 26.7765 11.6742 26.4432 12.2955C26.1098 12.9167 25.9432 13.6439 25.9432 14.4773H22.5909C22.5909 13.0606 22.9167 11.822 23.5682 10.7614C24.2197 9.70076 25.1136 8.87879 26.25 8.29545C27.3864 7.70454 28.678 7.40909 30.125 7.40909C31.5871 7.40909 32.875 7.70076 33.9886 8.28409C35.1098 8.85985 35.9848 9.64773 36.6136 10.6477C37.2424 11.6402 37.5568 12.7614 37.5568 14.0114C37.5568 14.875 37.3939 15.7197 37.0682 16.5455C36.75 17.3712 36.1932 18.2917 35.3977 19.3068C34.6023 20.3144 33.4962 21.5379 32.0795 22.9773L27.4545 27.8182V27.9886H37.9318V31H22.6136Z"/>
</mask>
<path d="M9.125 27.0909V11.7273H12.1818V27.0909H9.125ZM2.97727 20.9318V17.8864H18.3409V20.9318H2.97727ZM22.6136 31V28.4545L30.4886 20.2955C31.3295 19.4091 32.0227 18.6326 32.5682 17.9659C33.1212 17.2917 33.5341 16.6515 33.8068 16.0455C34.0795 15.4394 34.2159 14.7955 34.2159 14.1136C34.2159 13.3409 34.0341 12.6742 33.6705 12.1136C33.3068 11.5455 32.8106 11.1098 32.1818 10.8068C31.553 10.4962 30.8447 10.3409 30.0568 10.3409C29.2235 10.3409 28.4962 10.5114 27.875 10.8523C27.2538 11.1932 26.7765 11.6742 26.4432 12.2955C26.1098 12.9167 25.9432 13.6439 25.9432 14.4773H22.5909C22.5909 13.0606 22.9167 11.822 23.5682 10.7614C24.2197 9.70076 25.1136 8.87879 26.25 8.29545C27.3864 7.70454 28.678 7.40909 30.125 7.40909C31.5871 7.40909 32.875 7.70076 33.9886 8.28409C35.1098 8.85985 35.9848 9.64773 36.6136 10.6477C37.2424 11.6402 37.5568 12.7614 37.5568 14.0114C37.5568 14.875 37.3939 15.7197 37.0682 16.5455C36.75 17.3712 36.1932 18.2917 35.3977 19.3068C34.6023 20.3144 33.4962 21.5379 32.0795 22.9773L27.4545 27.8182V27.9886H37.9318V31H22.6136Z" fill="white"/>
<path d="M9.125 27.0909H8.125V28.0909H9.125V27.0909ZM9.125 11.7273V10.7273H8.125V11.7273H9.125ZM12.1818 11.7273H13.1818V10.7273H12.1818V11.7273ZM12.1818 27.0909V28.0909H13.1818V27.0909H12.1818ZM2.97727 20.9318H1.97727V21.9318H2.97727V20.9318ZM2.97727 17.8864V16.8864H1.97727V17.8864H2.97727ZM18.3409 17.8864H19.3409V16.8864H18.3409V17.8864ZM18.3409 20.9318V21.9318H19.3409V20.9318H18.3409ZM9.125 27.0909H10.125V11.7273H9.125H8.125V27.0909H9.125ZM9.125 11.7273V12.7273H12.1818V11.7273V10.7273H9.125V11.7273ZM12.1818 11.7273H11.1818V27.0909H12.1818H13.1818V11.7273H12.1818ZM12.1818 27.0909V26.0909H9.125V27.0909V28.0909H12.1818V27.0909ZM2.97727 20.9318H3.97727V17.8864H2.97727H1.97727V20.9318H2.97727ZM2.97727 17.8864V18.8864H18.3409V17.8864V16.8864H2.97727V17.8864ZM18.3409 17.8864H17.3409V20.9318H18.3409H19.3409V17.8864H18.3409ZM18.3409 20.9318V19.9318H2.97727V20.9318V21.9318H18.3409V20.9318ZM22.6136 31H21.6136V32H22.6136V31ZM22.6136 28.4545L21.8941 27.7601L21.6136 28.0507V28.4545H22.6136ZM30.4886 20.2955L31.2082 20.9899L31.2141 20.9837L30.4886 20.2955ZM32.5682 17.9659L31.795 17.3317L31.7942 17.3327L32.5682 17.9659ZM33.6705 12.1136L32.8282 12.6527L32.8315 12.6578L33.6705 12.1136ZM32.1818 10.8068L31.7389 11.7034L31.7477 11.7077L32.1818 10.8068ZM25.9432 14.4773V15.4773H26.9432V14.4773H25.9432ZM22.5909 14.4773H21.5909V15.4773H22.5909V14.4773ZM23.5682 10.7614L24.4203 11.2848V11.2848L23.5682 10.7614ZM26.25 8.29545L26.7067 9.1851L26.7114 9.18267L26.25 8.29545ZM33.9886 8.28409L33.5246 9.16995L33.5318 9.17366L33.9886 8.28409ZM36.6136 10.6477L35.7671 11.18L35.7689 11.1829L36.6136 10.6477ZM37.0682 16.5455L36.1379 16.1785L36.1351 16.1859L37.0682 16.5455ZM35.3977 19.3068L36.1826 19.9265L36.1849 19.9236L35.3977 19.3068ZM32.0795 22.9773L31.3668 22.2758L31.3616 22.2811L31.3565 22.2865L32.0795 22.9773ZM27.4545 27.8182L26.7315 27.1274L26.4545 27.4173V27.8182H27.4545ZM27.4545 27.9886H26.4545V28.9886H27.4545V27.9886ZM37.9318 27.9886H38.9318V26.9886H37.9318V27.9886ZM37.9318 31V32H38.9318V31H37.9318ZM22.6136 31H23.6136V28.4545H22.6136H21.6136V31H22.6136ZM22.6136 28.4545L23.3332 29.149L31.2082 20.9899L30.4886 20.2955L29.7691 19.601L21.8941 27.7601L22.6136 28.4545ZM30.4886 20.2955L31.2141 20.9837C32.0655 20.0863 32.7763 19.2907 33.3421 18.5991L32.5682 17.9659L31.7942 17.3327C31.2692 17.9744 30.5936 18.7319 29.7632 19.6072L30.4886 20.2955ZM32.5682 17.9659L33.3414 18.6001C33.934 17.8776 34.4006 17.1628 34.7187 16.4558L33.8068 16.0455L32.8949 15.6351C32.6676 16.1402 32.3084 16.7057 31.795 17.3317L32.5682 17.9659ZM33.8068 16.0455L34.7187 16.4558C35.0511 15.7173 35.2159 14.9332 35.2159 14.1136H34.2159H33.2159C33.2159 14.6577 33.108 15.1614 32.8949 15.6351L33.8068 16.0455ZM34.2159 14.1136H35.2159C35.2159 13.1787 34.9938 12.3162 34.5094 11.5694L33.6705 12.1136L32.8315 12.6578C33.0744 13.0323 33.2159 13.5031 33.2159 14.1136H34.2159ZM33.6705 12.1136L34.5127 11.5746C34.0456 10.8447 33.4056 10.2865 32.616 9.90597L32.1818 10.8068L31.7477 11.7077C32.2156 11.9332 32.568 12.2462 32.8282 12.6527L33.6705 12.1136ZM32.1818 10.8068L32.6247 9.91024C31.842 9.52361 30.9792 9.34091 30.0568 9.34091V10.3409V11.3409C30.7102 11.3409 31.264 11.4688 31.7389 11.7034L32.1818 10.8068ZM30.0568 10.3409V9.34091C29.085 9.34091 28.1866 9.54061 27.3939 9.97561L27.875 10.8523L28.3561 11.7289C28.8059 11.4821 29.362 11.3409 30.0568 11.3409V10.3409ZM27.875 10.8523L27.3939 9.97561C26.604 10.4091 25.9873 11.03 25.562 11.8226L26.4432 12.2955L27.3243 12.7683C27.5657 12.3185 27.9036 11.9773 28.3561 11.7289L27.875 10.8523ZM26.4432 12.2955L25.562 11.8226C25.1376 12.6136 24.9432 13.509 24.9432 14.4773H25.9432H26.9432C26.9432 13.7789 27.0821 13.2198 27.3243 12.7683L26.4432 12.2955ZM25.9432 14.4773V13.4773H22.5909V14.4773V15.4773H25.9432V14.4773ZM22.5909 14.4773H23.5909C23.5909 13.2193 23.8783 12.1671 24.4203 11.2848L23.5682 10.7614L22.7161 10.2379C21.9551 11.4769 21.5909 12.9019 21.5909 14.4773H22.5909ZM23.5682 10.7614L24.4203 11.2848C24.9734 10.3844 25.7287 9.68714 26.7067 9.18509L26.25 8.29545L25.7933 7.40582C24.4986 8.07044 23.466 9.01714 22.7161 10.2379L23.5682 10.7614ZM26.25 8.29545L26.7114 9.18267C27.6876 8.675 28.8176 8.40909 30.125 8.40909V7.40909V6.40909C28.5385 6.40909 27.0851 6.73409 25.7886 7.40824L26.25 8.29545ZM30.125 7.40909V8.40909C31.4519 8.40909 32.5759 8.67295 33.5246 9.16992L33.9886 8.28409L34.4526 7.39826C33.1741 6.72856 31.7223 6.40909 30.125 6.40909V7.40909ZM33.9886 8.28409L33.5318 9.17366C34.5045 9.67315 35.2402 10.3422 35.7671 11.18L36.6136 10.6477L37.4602 10.1154C36.7295 8.9533 35.7152 8.04654 34.4454 7.39452L33.9886 8.28409ZM36.6136 10.6477L35.7689 11.1829C36.2897 12.0049 36.5568 12.9382 36.5568 14.0114H37.5568H38.5568C38.5568 12.5845 38.1952 11.2754 37.4584 10.1125L36.6136 10.6477ZM37.5568 14.0114H36.5568C36.5568 14.7459 36.4189 15.4663 36.138 16.1785L37.0682 16.5455L37.9984 16.9124C38.369 15.9731 38.5568 15.0041 38.5568 14.0114H37.5568ZM37.0682 16.5455L36.1351 16.1859C35.8647 16.8874 35.3702 17.7206 34.6106 18.69L35.3977 19.3068L36.1849 19.9236C37.0162 18.8627 37.6353 17.855 38.0013 16.905L37.0682 16.5455ZM35.3977 19.3068L34.6128 18.6872C33.8489 19.6549 32.7706 20.8495 31.3668 22.2758L32.0795 22.9773L32.7923 23.6787C34.2218 22.2263 35.3557 20.9739 36.1826 19.9265L35.3977 19.3068ZM32.0795 22.9773L31.3565 22.2865L26.7315 27.1274L27.4545 27.8182L28.1776 28.509L32.8026 23.6681L32.0795 22.9773ZM27.4545 27.8182H26.4545V27.9886H27.4545H28.4545V27.8182H27.4545ZM27.4545 27.9886V28.9886H37.9318V27.9886V26.9886H27.4545V27.9886ZM37.9318 27.9886H36.9318V31H37.9318H38.9318V27.9886H37.9318ZM37.9318 31V30H22.6136V31V32H37.9318V31Z" fill="black" mask="url(#path-1-outside-1_2_289)"/>
<mask id="path-3-outside-2_2_289" maskUnits="userSpaceOnUse" x="91" y="165" width="38" height="26" fill="black">
<rect fill="white" x="91" y="165" width="38" height="26"/>
<path d="M120.875 169.909V185.273H117.818V169.909H120.875ZM127.023 176.068V179.114H111.659V176.068H127.023ZM107.386 166V168.545L99.5114 176.705C98.6705 177.591 97.9773 178.367 97.4318 179.034C96.8788 179.708 96.4659 180.348 96.1932 180.955C95.9205 181.561 95.7841 182.205 95.7841 182.886C95.7841 183.659 95.9659 184.326 96.3295 184.886C96.6932 185.455 97.1894 185.89 97.8182 186.193C98.447 186.504 99.1553 186.659 99.9432 186.659C100.777 186.659 101.504 186.489 102.125 186.148C102.746 185.807 103.223 185.326 103.557 184.705C103.89 184.083 104.057 183.356 104.057 182.523H107.409C107.409 183.939 107.083 185.178 106.432 186.239C105.78 187.299 104.886 188.121 103.75 188.705C102.614 189.295 101.322 189.591 99.875 189.591C98.4129 189.591 97.125 189.299 96.0114 188.716C94.8902 188.14 94.0152 187.352 93.3864 186.352C92.7576 185.36 92.4432 184.239 92.4432 182.989C92.4432 182.125 92.6061 181.28 92.9318 180.455C93.25 179.629 93.8068 178.708 94.6023 177.693C95.3977 176.686 96.5038 175.462 97.9205 174.023L102.545 169.182V169.011H92.0682V166H107.386Z"/>
</mask>
<path d="M120.875 169.909V185.273H117.818V169.909H120.875ZM127.023 176.068V179.114H111.659V176.068H127.023ZM107.386 166V168.545L99.5114 176.705C98.6705 177.591 97.9773 178.367 97.4318 179.034C96.8788 179.708 96.4659 180.348 96.1932 180.955C95.9205 181.561 95.7841 182.205 95.7841 182.886C95.7841 183.659 95.9659 184.326 96.3295 184.886C96.6932 185.455 97.1894 185.89 97.8182 186.193C98.447 186.504 99.1553 186.659 99.9432 186.659C100.777 186.659 101.504 186.489 102.125 186.148C102.746 185.807 103.223 185.326 103.557 184.705C103.89 184.083 104.057 183.356 104.057 182.523H107.409C107.409 183.939 107.083 185.178 106.432 186.239C105.78 187.299 104.886 188.121 103.75 188.705C102.614 189.295 101.322 189.591 99.875 189.591C98.4129 189.591 97.125 189.299 96.0114 188.716C94.8902 188.14 94.0152 187.352 93.3864 186.352C92.7576 185.36 92.4432 184.239 92.4432 182.989C92.4432 182.125 92.6061 181.28 92.9318 180.455C93.25 179.629 93.8068 178.708 94.6023 177.693C95.3977 176.686 96.5038 175.462 97.9205 174.023L102.545 169.182V169.011H92.0682V166H107.386Z" fill="white"/>
<path d="M120.875 169.909H121.875V168.909H120.875V169.909ZM120.875 185.273V186.273H121.875V185.273H120.875ZM117.818 185.273H116.818V186.273H117.818V185.273ZM117.818 169.909V168.909H116.818V169.909H117.818ZM127.023 176.068H128.023V175.068H127.023V176.068ZM127.023 179.114V180.114H128.023V179.114H127.023ZM111.659 179.114H110.659V180.114H111.659V179.114ZM111.659 176.068V175.068H110.659V176.068H111.659ZM120.875 169.909H119.875V185.273H120.875H121.875V169.909H120.875ZM120.875 185.273V184.273H117.818V185.273V186.273H120.875V185.273ZM117.818 185.273H118.818V169.909H117.818H116.818V185.273H117.818ZM117.818 169.909V170.909H120.875V169.909V168.909H117.818V169.909ZM127.023 176.068H126.023V179.114H127.023H128.023V176.068H127.023ZM127.023 179.114V178.114H111.659V179.114V180.114H127.023V179.114ZM111.659 179.114H112.659V176.068H111.659H110.659V179.114H111.659ZM111.659 176.068V177.068H127.023V176.068V175.068H111.659V176.068ZM107.386 166H108.386V165H107.386V166ZM107.386 168.545L108.106 169.24L108.386 168.949V168.545H107.386ZM99.5114 176.705L98.7918 176.01L98.7859 176.016L99.5114 176.705ZM97.4318 179.034L98.205 179.668L98.2058 179.667L97.4318 179.034ZM96.3295 184.886L97.1718 184.347L97.1685 184.342L96.3295 184.886ZM97.8182 186.193L98.2611 185.297L98.2523 185.292L97.8182 186.193ZM104.057 182.523V181.523H103.057V182.523H104.057ZM107.409 182.523H108.409V181.523H107.409V182.523ZM106.432 186.239L105.58 185.715V185.715L106.432 186.239ZM103.75 188.705L103.293 187.815L103.289 187.817L103.75 188.705ZM96.0114 188.716L96.4754 187.83L96.4682 187.826L96.0114 188.716ZM93.3864 186.352L94.2329 185.82L94.2311 185.817L93.3864 186.352ZM92.9318 180.455L93.8621 180.822L93.8649 180.814L92.9318 180.455ZM94.6023 177.693L93.8174 177.074L93.8151 177.076L94.6023 177.693ZM97.9205 174.023L98.6332 174.724L98.6384 174.719L98.6435 174.714L97.9205 174.023ZM102.545 169.182L103.269 169.873L103.545 169.583V169.182H102.545ZM102.545 169.011H103.545V168.011H102.545V169.011ZM92.0682 169.011H91.0682V170.011H92.0682V169.011ZM92.0682 166V165H91.0682V166H92.0682ZM107.386 166H106.386V168.545H107.386H108.386V166H107.386ZM107.386 168.545L106.667 167.851L98.7918 176.01L99.5114 176.705L100.231 177.399L108.106 169.24L107.386 168.545ZM99.5114 176.705L98.7859 176.016C97.9345 176.914 97.2237 177.709 96.6579 178.401L97.4318 179.034L98.2058 179.667C98.7308 179.026 99.4064 178.268 100.237 177.393L99.5114 176.705ZM97.4318 179.034L96.6586 178.4C96.066 179.122 95.5994 179.837 95.2813 180.544L96.1932 180.955L97.1051 181.365C97.3324 180.86 97.6916 180.294 98.205 179.668L97.4318 179.034ZM96.1932 180.955L95.2813 180.544C94.9489 181.283 94.7841 182.067 94.7841 182.886H95.7841H96.7841C96.7841 182.342 96.892 181.839 97.1051 181.365L96.1932 180.955ZM95.7841 182.886H94.7841C94.7841 183.821 95.0062 184.684 95.4906 185.431L96.3295 184.886L97.1685 184.342C96.9256 183.968 96.7841 183.497 96.7841 182.886H95.7841ZM96.3295 184.886L95.4873 185.425C95.9544 186.155 96.5944 186.713 97.384 187.094L97.8182 186.193L98.2523 185.292C97.7844 185.067 97.432 184.754 97.1718 184.347L96.3295 184.886ZM97.8182 186.193L97.3753 187.09C98.158 187.476 99.0208 187.659 99.9432 187.659V186.659V185.659C99.2898 185.659 98.736 185.531 98.2611 185.297L97.8182 186.193ZM99.9432 186.659V187.659C100.915 187.659 101.813 187.459 102.606 187.024L102.125 186.148L101.644 185.271C101.194 185.518 100.638 185.659 99.9432 185.659V186.659ZM102.125 186.148L102.606 187.024C103.396 186.591 104.013 185.97 104.438 185.177L103.557 184.705L102.676 184.232C102.434 184.682 102.096 185.023 101.644 185.271L102.125 186.148ZM103.557 184.705L104.438 185.177C104.862 184.386 105.057 183.491 105.057 182.523H104.057H103.057C103.057 183.221 102.918 183.78 102.676 184.232L103.557 184.705ZM104.057 182.523V183.523H107.409V182.523V181.523H104.057V182.523ZM107.409 182.523H106.409C106.409 183.781 106.122 184.833 105.58 185.715L106.432 186.239L107.284 186.762C108.045 185.523 108.409 184.098 108.409 182.523H107.409ZM106.432 186.239L105.58 185.715C105.027 186.616 104.271 187.313 103.293 187.815L103.75 188.705L104.207 189.594C105.501 188.93 106.534 187.983 107.284 186.762L106.432 186.239ZM103.75 188.705L103.289 187.817C102.312 188.325 101.182 188.591 99.875 188.591V189.591V190.591C101.462 190.591 102.915 190.266 104.211 189.592L103.75 188.705ZM99.875 189.591V188.591C98.5481 188.591 97.4241 188.327 96.4754 187.83L96.0114 188.716L95.5474 189.602C96.8259 190.271 98.2777 190.591 99.875 190.591V189.591ZM96.0114 188.716L96.4682 187.826C95.4955 187.327 94.7598 186.658 94.2329 185.82L93.3864 186.352L92.5398 186.885C93.2705 188.047 94.2848 188.953 95.5546 189.605L96.0114 188.716ZM93.3864 186.352L94.2311 185.817C93.7103 184.995 93.4432 184.062 93.4432 182.989H92.4432H91.4432C91.4432 184.415 91.8048 185.725 92.5416 186.887L93.3864 186.352ZM92.4432 182.989H93.4432C93.4432 182.254 93.5811 181.534 93.862 180.822L92.9318 180.455L92.0016 180.088C91.631 181.027 91.4432 181.996 91.4432 182.989H92.4432ZM92.9318 180.455L93.8649 180.814C94.1353 180.113 94.6298 179.279 95.3894 178.31L94.6023 177.693L93.8151 177.076C92.9838 178.137 92.3647 179.145 91.9987 180.095L92.9318 180.455ZM94.6023 177.693L95.3872 178.313C96.1511 177.345 97.2294 176.151 98.6332 174.724L97.9205 174.023L97.2077 173.321C95.7782 174.774 94.6443 176.026 93.8174 177.074L94.6023 177.693ZM97.9205 174.023L98.6435 174.714L103.269 169.873L102.545 169.182L101.822 168.491L97.1974 173.332L97.9205 174.023ZM102.545 169.182H103.545V169.011H102.545H101.545V169.182H102.545ZM102.545 169.011V168.011H92.0682V169.011V170.011H102.545V169.011ZM92.0682 169.011H93.0682V166H92.0682H91.0682V169.011H92.0682ZM92.0682 166V167H107.386V166V165H92.0682V166Z" fill="black" mask="url(#path-3-outside-2_2_289)"/>
</svg>
