<svg width="122" height="189" viewBox="0 0 122 189" fill="none" xmlns="http://www.w3.org/2000/svg">
<path fill-rule="evenodd" clip-rule="evenodd" d="M10.2857 13.0803V9.75573H7.71429C6.29411 9.75573 5.14286 10.907 5.14286 12.3272V21.3272C5.14286 22.7473 6.29414 23.8986 7.71429 23.8986H10.2857C11.7059 23.8986 12.8571 25.0498 12.8571 26.47C12.8571 27.8902 11.7059 29.0414 10.2857 29.0414H7.71429C3.45382 29.0414 5.796e-07 25.5878 3.93429e-07 21.3272L0 12.3272C-1.86429e-07 8.06668 3.45379 4.61287 7.71429 4.61287H10.2857V1.28829C10.2857 0.142846 11.6706 -0.430801 12.4806 0.379153L18.3766 6.27517C18.8787 6.77727 18.8787 7.59133 18.3766 8.09345L12.4806 13.9895C11.6706 14.7994 10.2857 14.2258 10.2857 13.0803Z" fill="white"/>
<path fill-rule="evenodd" clip-rule="evenodd" d="M111.715 184.041V187.366C111.715 188.511 110.33 189.085 109.52 188.275L103.624 182.379C103.122 181.877 103.122 181.063 103.624 180.561L109.52 174.665C110.33 173.855 111.715 174.429 111.715 175.574V178.899H114.286C115.706 178.899 116.857 177.747 116.857 176.327V167.327C116.857 165.907 115.706 164.756 114.286 164.756H111.715C110.294 164.756 109.143 163.605 109.143 162.184C109.143 160.764 110.294 159.613 111.715 159.613H114.286C118.547 159.613 122 163.067 122 167.327V176.327C122 180.588 118.547 184.041 114.286 184.041H111.715Z" fill="white"/>
</svg>
