<svg width="122" height="189" viewBox="0 0 122 189" fill="none" xmlns="http://www.w3.org/2000/svg">
<path fill-rule="evenodd" clip-rule="evenodd" d="M52.7143 90.4404V86.0076H49.2857C47.3921 86.0076 45.8571 87.5427 45.8571 89.4362V101.436C45.8571 103.33 47.3922 104.865 49.2857 104.865H52.7143C54.6078 104.865 56.1429 106.4 56.1429 108.293C56.1429 110.187 54.6078 111.722 52.7143 111.722H49.2857C43.6051 111.722 39 107.117 39 101.436L39 89.4362C39 83.7556 43.6051 79.1505 49.2857 79.1505H52.7143V74.7177C52.7143 73.1905 54.5608 72.4256 55.6407 73.5055L63.5021 81.3669C64.1716 82.0364 64.1716 83.1218 63.5021 83.7913L55.6407 91.6526C54.5608 92.7325 52.7143 91.9677 52.7143 90.4404ZM73.2857 111.722V116.155C73.2857 117.682 71.4392 118.447 70.3593 117.367L62.4979 109.506C61.8284 108.836 61.8284 107.751 62.4979 107.081L70.3593 99.2198C71.4392 98.1399 73.2857 98.9048 73.2857 100.432V104.865H76.7143C78.6079 104.865 80.1429 103.33 80.1429 101.436V89.4362C80.1429 87.5427 78.6079 86.0076 76.7143 86.0076H73.2857C71.3921 86.0076 69.8571 84.4726 69.8571 82.5791C69.8571 80.6855 71.3921 79.1505 73.2857 79.1505H76.7143C82.3951 79.1505 87 83.7556 87 89.4362V101.436C87 107.117 82.3951 111.722 76.7143 111.722H73.2857Z" fill="currentColor"/>
<path fill-rule="evenodd" clip-rule="evenodd" d="M10.2857 13.0803V9.75573H7.71429C6.29411 9.75573 5.14286 10.907 5.14286 12.3272V21.3272C5.14286 22.7473 6.29414 23.8986 7.71429 23.8986H10.2857C11.7059 23.8986 12.8571 25.0498 12.8571 26.47C12.8571 27.8902 11.7059 29.0414 10.2857 29.0414H7.71429C3.45382 29.0414 5.796e-07 25.5878 3.93429e-07 21.3272L0 12.3272C-1.86429e-07 8.06668 3.45379 4.61287 7.71429 4.61287H10.2857V1.28829C10.2857 0.142846 11.6706 -0.430801 12.4806 0.379153L18.3766 6.27517C18.8787 6.77727 18.8787 7.59133 18.3766 8.09345L12.4806 13.9895C11.6706 14.7994 10.2857 14.2258 10.2857 13.0803Z" fill="white"/>
<path fill-rule="evenodd" clip-rule="evenodd" d="M111.715 184.041V187.366C111.715 188.511 110.33 189.085 109.52 188.275L103.624 182.379C103.122 181.877 103.122 181.063 103.624 180.561L109.52 174.665C110.33 173.855 111.715 174.429 111.715 175.574V178.899H114.286C115.706 178.899 116.857 177.747 116.857 176.327V167.327C116.857 165.907 115.706 164.756 114.286 164.756H111.715C110.294 164.756 109.143 163.605 109.143 162.184C109.143 160.764 110.294 159.613 111.715 159.613H114.286C118.547 159.613 122 163.067 122 167.327V176.327C122 180.588 118.547 184.041 114.286 184.041H111.715Z" fill="white"/>
</svg>
