<svg width="32" height="32" viewBox="0 0 32 32" fill="none" xmlns="http://www.w3.org/2000/svg">
<path d="M16 0C12.8355 0 9.74207 0.938383 7.11088 2.69649C4.4797 4.45459 2.42894 6.95345 1.21793 9.87706C0.00693257 12.8007 -0.309921 16.0177 0.307443 19.1214C0.924806 22.2251 2.44866 25.0761 4.6863 27.3137C6.92394 29.5513 9.77486 31.0752 12.8786 31.6926C15.9823 32.3099 19.1993 31.9931 22.1229 30.7821C25.0466 29.5711 27.5454 27.5203 29.3035 24.8891C31.0616 22.2579 32 19.1645 32 16C32 11.7565 30.3143 7.68687 27.3137 4.68629C24.3131 1.68571 20.2435 0 16 0ZM7.05334 7.05333C9.19227 4.96958 11.9906 3.69649 14.9668 3.45314C17.943 3.20978 20.911 4.01138 23.36 5.72C23.3992 5.75253 23.4307 5.79329 23.4523 5.83938C23.4739 5.88547 23.4852 5.93575 23.4852 5.98667C23.4852 6.03758 23.4739 6.08787 23.4523 6.13395C23.4307 6.18004 23.3992 6.2208 23.36 6.25333L6.22667 23.4133C6.19293 23.4505 6.15177 23.4803 6.10584 23.5006C6.05992 23.521 6.01024 23.5315 5.96001 23.5315C5.90977 23.5315 5.8601 23.521 5.81417 23.5006C5.76824 23.4803 5.72708 23.4505 5.69334 23.4133C3.9455 20.9763 3.12008 17.9976 3.36429 15.0086C3.60849 12.0195 4.90644 9.21436 7.02667 7.09333L7.05334 7.05333ZM25 25.0133C22.8743 27.1206 20.073 28.4097 17.0898 28.6537C14.1066 28.8976 11.1331 28.0806 8.69334 26.3467C8.65417 26.3141 8.62266 26.2734 8.60103 26.2273C8.5794 26.1812 8.56818 26.1309 8.56818 26.08C8.56818 26.0291 8.5794 25.9788 8.60103 25.9327C8.62266 25.8866 8.65417 25.8459 8.69334 25.8133L25.8267 8.65333C25.8592 8.61417 25.9 8.58265 25.946 8.56102C25.9921 8.53939 26.0424 8.52818 26.0933 8.52818C26.1442 8.52818 26.1945 8.53939 26.2406 8.56102C26.2867 8.58265 26.3275 8.61417 26.36 8.65333C28.1078 11.0904 28.9333 14.069 28.6891 17.0581C28.4449 20.0471 27.1469 22.8523 25.0267 24.9733L25 25.0133Z" fill="white"/>
</svg>
