<svg width="64" height="64" viewBox="0 0 64 64" fill="none" xmlns="http://www.w3.org/2000/svg">
<rect x="18.5" y="14.5" width="28.1898" height="34.9873" rx="4.5" fill="black" stroke="white"/>
<rect x="24.7078" y="24.9231" width="8.49683" height="7.36392" fill="#EA5A2A"/>
<rect x="24.7078" y="31.7207" width="9.06328" height="6.79746" fill="#489E52"/>
<path d="M32.6382 24.9231H41.135V32.287H32.6382V24.9231Z" fill="#F4C745"/>
<path d="M32.6382 31.7207H41.135V38.5182H32.6382V31.7207Z" fill="#3684CC"/>
<path d="M32 0C25.671 0 19.4841 1.87677 14.2218 5.39297C8.95939 8.90918 4.85787 13.9069 2.43587 19.7541C0.0138651 25.6014 -0.619842 32.0355 0.614885 38.2429C1.84961 44.4503 4.89732 50.1521 9.37259 54.6274C13.8479 59.1027 19.5497 62.1504 25.7571 63.3851C31.9645 64.6198 38.3986 63.9861 44.2459 61.5641C50.0931 59.1421 55.0908 55.0406 58.607 49.7782C62.1232 44.5159 64 38.329 64 32C64 23.5131 60.6286 15.3737 54.6274 9.37258C48.6263 3.37142 40.4869 0 32 0ZM14.1067 14.1067C18.3845 9.93915 23.9812 7.39298 29.9336 6.90628C35.886 6.41957 41.822 8.02277 46.72 11.44C46.7983 11.5051 46.8614 11.5866 46.9046 11.6788C46.9479 11.7709 46.9703 11.8715 46.9703 11.9733C46.9703 12.0752 46.9479 12.1757 46.9046 12.2679C46.8614 12.3601 46.7983 12.4416 46.72 12.5067L12.4533 46.8267C12.3859 46.9011 12.3035 46.9606 12.2117 47.0012C12.1198 47.0419 12.0205 47.063 11.92 47.063C11.8195 47.063 11.7202 47.0419 11.6283 47.0012C11.5365 46.9606 11.4542 46.9011 11.3867 46.8267C7.89099 41.9526 6.24016 35.9953 6.72857 30.0172C7.21698 24.039 9.81288 18.4287 14.0533 14.1867L14.1067 14.1067ZM50 50.0267C45.7486 54.2411 40.146 56.8195 34.1796 57.3073C28.2133 57.7952 22.2662 56.1612 17.3867 52.6933C17.3083 52.6283 17.2453 52.5467 17.2021 52.4546C17.1588 52.3624 17.1364 52.2618 17.1364 52.16C17.1364 52.0582 17.1588 51.9576 17.2021 51.8654C17.2453 51.7732 17.3083 51.6917 17.3867 51.6267L51.6533 17.3067C51.7184 17.2283 51.7999 17.1653 51.8921 17.122C51.9843 17.0788 52.0848 17.0564 52.1867 17.0564C52.2885 17.0564 52.3891 17.0788 52.4812 17.122C52.5734 17.1653 52.6549 17.2283 52.72 17.3067C56.2157 22.1808 57.8665 28.138 57.3781 34.1162C56.8897 40.0943 54.2938 45.7046 50.0533 49.9467L50 50.0267Z" fill="#489E52"/>
</svg>
