<svg width="130" height="197" viewBox="0 0 130 197" fill="none" xmlns="http://www.w3.org/2000/svg">
<mask id="path-1-outside-1_2_288" maskUnits="userSpaceOnUse" x="1" y="6" width="40" height="27" fill="black">
<rect fill="white" x="1" y="6" width="40" height="27"/>
<path d="M9.125 27.0909V11.7273H12.1818V27.0909H9.125ZM2.97727 20.9318V17.8864H18.3409V20.9318H2.97727ZM31.3409 31.3182C29.7803 31.3182 28.3864 31.0492 27.1591 30.5114C25.9394 29.9735 24.9735 29.2273 24.2614 28.2727C23.5568 27.3106 23.178 26.197 23.125 24.9318H26.6932C26.7386 25.6212 26.9697 26.2197 27.3864 26.7273C27.8106 27.2273 28.3636 27.6136 29.0455 27.8864C29.7273 28.1591 30.4848 28.2955 31.3182 28.2955C32.2348 28.2955 33.0455 28.1364 33.75 27.8182C34.4621 27.5 35.0189 27.0568 35.4205 26.4886C35.822 25.9129 36.0227 25.25 36.0227 24.5C36.0227 23.7197 35.822 23.0341 35.4205 22.4432C35.0265 21.8447 34.447 21.375 33.6818 21.0341C32.9242 20.6932 32.0076 20.5227 30.9318 20.5227H28.9659V17.6591H30.9318C31.7955 17.6591 32.553 17.5038 33.2045 17.1932C33.8636 16.8826 34.3788 16.4508 34.75 15.8977C35.1212 15.3371 35.3068 14.6818 35.3068 13.9318C35.3068 13.2121 35.1439 12.5871 34.8182 12.0568C34.5 11.5189 34.0455 11.0985 33.4545 10.7955C32.8712 10.4924 32.1818 10.3409 31.3864 10.3409C30.6288 10.3409 29.9205 10.4811 29.2614 10.7614C28.6098 11.0341 28.0795 11.428 27.6705 11.9432C27.2614 12.4508 27.0417 13.0606 27.0114 13.7727H23.6136C23.6515 12.5152 24.0227 11.4091 24.7273 10.4545C25.4394 9.5 26.3788 8.75379 27.5455 8.21591C28.7121 7.67803 30.0076 7.40909 31.4318 7.40909C32.9242 7.40909 34.2121 7.70076 35.2955 8.28409C36.3864 8.85985 37.2273 9.62879 37.8182 10.5909C38.4167 11.553 38.7121 12.6061 38.7045 13.75C38.7121 15.053 38.3485 16.1591 37.6136 17.0682C36.8864 17.9773 35.9167 18.5871 34.7045 18.8977V19.0795C36.25 19.3144 37.447 19.928 38.2955 20.9205C39.1515 21.9129 39.5758 23.1439 39.5682 24.6136C39.5758 25.8939 39.2197 27.0417 38.5 28.0568C37.7879 29.072 36.8144 29.8712 35.5795 30.4545C34.3447 31.0303 32.9318 31.3182 31.3409 31.3182Z"/>
</mask>
<path d="M9.125 27.0909V11.7273H12.1818V27.0909H9.125ZM2.97727 20.9318V17.8864H18.3409V20.9318H2.97727ZM31.3409 31.3182C29.7803 31.3182 28.3864 31.0492 27.1591 30.5114C25.9394 29.9735 24.9735 29.2273 24.2614 28.2727C23.5568 27.3106 23.178 26.197 23.125 24.9318H26.6932C26.7386 25.6212 26.9697 26.2197 27.3864 26.7273C27.8106 27.2273 28.3636 27.6136 29.0455 27.8864C29.7273 28.1591 30.4848 28.2955 31.3182 28.2955C32.2348 28.2955 33.0455 28.1364 33.75 27.8182C34.4621 27.5 35.0189 27.0568 35.4205 26.4886C35.822 25.9129 36.0227 25.25 36.0227 24.5C36.0227 23.7197 35.822 23.0341 35.4205 22.4432C35.0265 21.8447 34.447 21.375 33.6818 21.0341C32.9242 20.6932 32.0076 20.5227 30.9318 20.5227H28.9659V17.6591H30.9318C31.7955 17.6591 32.553 17.5038 33.2045 17.1932C33.8636 16.8826 34.3788 16.4508 34.75 15.8977C35.1212 15.3371 35.3068 14.6818 35.3068 13.9318C35.3068 13.2121 35.1439 12.5871 34.8182 12.0568C34.5 11.5189 34.0455 11.0985 33.4545 10.7955C32.8712 10.4924 32.1818 10.3409 31.3864 10.3409C30.6288 10.3409 29.9205 10.4811 29.2614 10.7614C28.6098 11.0341 28.0795 11.428 27.6705 11.9432C27.2614 12.4508 27.0417 13.0606 27.0114 13.7727H23.6136C23.6515 12.5152 24.0227 11.4091 24.7273 10.4545C25.4394 9.5 26.3788 8.75379 27.5455 8.21591C28.7121 7.67803 30.0076 7.40909 31.4318 7.40909C32.9242 7.40909 34.2121 7.70076 35.2955 8.28409C36.3864 8.85985 37.2273 9.62879 37.8182 10.5909C38.4167 11.553 38.7121 12.6061 38.7045 13.75C38.7121 15.053 38.3485 16.1591 37.6136 17.0682C36.8864 17.9773 35.9167 18.5871 34.7045 18.8977V19.0795C36.25 19.3144 37.447 19.928 38.2955 20.9205C39.1515 21.9129 39.5758 23.1439 39.5682 24.6136C39.5758 25.8939 39.2197 27.0417 38.5 28.0568C37.7879 29.072 36.8144 29.8712 35.5795 30.4545C34.3447 31.0303 32.9318 31.3182 31.3409 31.3182Z" fill="white"/>
<path d="M9.125 27.0909H8.125V28.0909H9.125V27.0909ZM9.125 11.7273V10.7273H8.125V11.7273H9.125ZM12.1818 11.7273H13.1818V10.7273H12.1818V11.7273ZM12.1818 27.0909V28.0909H13.1818V27.0909H12.1818ZM2.97727 20.9318H1.97727V21.9318H2.97727V20.9318ZM2.97727 17.8864V16.8864H1.97727V17.8864H2.97727ZM18.3409 17.8864H19.3409V16.8864H18.3409V17.8864ZM18.3409 20.9318V21.9318H19.3409V20.9318H18.3409ZM9.125 27.0909H10.125V11.7273H9.125H8.125V27.0909H9.125ZM9.125 11.7273V12.7273H12.1818V11.7273V10.7273H9.125V11.7273ZM12.1818 11.7273H11.1818V27.0909H12.1818H13.1818V11.7273H12.1818ZM12.1818 27.0909V26.0909H9.125V27.0909V28.0909H12.1818V27.0909ZM2.97727 20.9318H3.97727V17.8864H2.97727H1.97727V20.9318H2.97727ZM2.97727 17.8864V18.8864H18.3409V17.8864V16.8864H2.97727V17.8864ZM18.3409 17.8864H17.3409V20.9318H18.3409H19.3409V17.8864H18.3409ZM18.3409 20.9318V19.9318H2.97727V20.9318V21.9318H18.3409V20.9318ZM27.1591 30.5114L26.7556 31.4263L26.7577 31.4273L27.1591 30.5114ZM24.2614 28.2727L23.4545 28.8636L23.4598 28.8707L24.2614 28.2727ZM23.125 24.9318V23.9318H22.0822L22.1259 24.9737L23.125 24.9318ZM26.6932 24.9318L27.691 24.866L27.6294 23.9318H26.6932V24.9318ZM27.3864 26.7273L26.6134 27.3618L26.6186 27.368L26.6239 27.3743L27.3864 26.7273ZM29.0455 27.8864L29.4168 26.9579H29.4168L29.0455 27.8864ZM33.75 27.8182L33.3421 26.9052L33.3384 26.9068L33.75 27.8182ZM35.4205 26.4886L36.2371 27.0658L36.2407 27.0606L35.4205 26.4886ZM35.4205 22.4432L34.5852 22.993L34.5892 22.9991L34.5933 23.0052L35.4205 22.4432ZM33.6818 21.0341L33.2715 21.946L33.2748 21.9475L33.6818 21.0341ZM28.9659 20.5227H27.9659V21.5227H28.9659V20.5227ZM28.9659 17.6591V16.6591H27.9659V17.6591H28.9659ZM33.2045 17.1932L32.7782 16.2886L32.7742 16.2905L33.2045 17.1932ZM34.75 15.8977L35.5803 16.4551L35.5838 16.4498L34.75 15.8977ZM34.8182 12.0568L33.9575 12.566L33.9617 12.5731L33.9661 12.5802L34.8182 12.0568ZM33.4545 10.7955L32.9935 11.6829L32.9982 11.6853L33.4545 10.7955ZM29.2614 10.7614L29.6475 11.6838L29.6527 11.6816L29.2614 10.7614ZM27.6705 11.9432L28.4491 12.5707L28.4536 12.5651L27.6705 11.9432ZM27.0114 13.7727V14.7727H27.9697L28.0105 13.8152L27.0114 13.7727ZM23.6136 13.7727L22.6141 13.7426L22.5831 14.7727H23.6136V13.7727ZM24.7273 10.4545L23.9257 9.85657L23.9227 9.86069L24.7273 10.4545ZM27.5455 8.21591L27.9641 9.12404V9.12404L27.5455 8.21591ZM35.2955 8.28409L34.8213 9.16459L34.8287 9.16847L35.2955 8.28409ZM37.8182 10.5909L36.966 11.1143L36.9691 11.1191L37.8182 10.5909ZM38.7045 13.75L37.7045 13.7434L37.7046 13.7558L38.7045 13.75ZM37.6136 17.0682L36.8359 16.4395L36.8328 16.4435L37.6136 17.0682ZM34.7045 18.8977L34.4563 17.929L33.7045 18.1217V18.8977H34.7045ZM34.7045 19.0795H33.7045V19.9391L34.5543 20.0682L34.7045 19.0795ZM38.2955 20.9205L37.5354 21.5703L37.5382 21.5736L38.2955 20.9205ZM39.5682 24.6136L38.5681 24.6085L38.5682 24.6196L39.5682 24.6136ZM38.5 28.0568L37.6842 27.4785L37.6813 27.4825L38.5 28.0568ZM35.5795 30.4545L36.0021 31.3609L36.0067 31.3587L35.5795 30.4545ZM31.3409 31.3182V30.3182C29.8959 30.3182 28.6421 30.0695 27.5605 29.5955L27.1591 30.5114L26.7577 31.4273C28.1306 32.029 29.6647 32.3182 31.3409 32.3182V31.3182ZM27.1591 30.5114L27.5626 29.5964C26.4815 29.1196 25.66 28.4752 25.0629 27.6748L24.2614 28.2727L23.4598 28.8707C24.2869 29.9794 25.3973 30.8274 26.7556 31.4263L27.1591 30.5114ZM24.2614 28.2727L25.0682 27.6819C24.4881 26.8898 24.1694 25.97 24.1241 24.8899L23.125 24.9318L22.1259 24.9737C22.1867 26.424 22.6255 27.7314 23.4546 28.8635L24.2614 28.2727ZM23.125 24.9318V25.9318H26.6932V24.9318V23.9318H23.125V24.9318ZM26.6932 24.9318L25.6953 24.9976C25.7538 25.8839 26.0571 26.6841 26.6134 27.3618L27.3864 26.7273L28.1593 26.0928C27.8823 25.7553 27.7235 25.3586 27.691 24.866L26.6932 24.9318ZM27.3864 26.7273L26.6239 27.3743C27.1657 28.0129 27.8593 28.4889 28.6741 28.8148L29.0455 27.8864L29.4168 26.9579C28.868 26.7383 28.4555 26.4417 28.1489 26.0803L27.3864 26.7273ZM29.0455 27.8864L28.6741 28.8148C29.4888 29.1408 30.3747 29.2955 31.3182 29.2955V28.2955V27.2955C30.595 27.2955 29.9657 27.1774 29.4168 26.9579L29.0455 27.8864ZM31.3182 28.2955V29.2955C32.3508 29.2955 33.3059 29.116 34.1616 28.7296L33.75 27.8182L33.3384 26.9068C32.785 27.1567 32.1189 27.2955 31.3182 27.2955V28.2955ZM33.75 27.8182L34.1579 28.7312C35.0137 28.3488 35.7199 27.7977 36.2371 27.0657L35.4205 26.4886L34.6038 25.9115C34.318 26.3159 33.9106 26.6512 33.3421 26.9052L33.75 27.8182ZM35.4205 26.4886L36.2407 27.0606C36.7674 26.3054 37.0227 25.4398 37.0227 24.5H36.0227H35.0227C35.0227 25.0602 34.8765 25.5204 34.6002 25.9166L35.4205 26.4886ZM36.0227 24.5H37.0227C37.0227 23.5386 36.7721 22.6532 36.2476 21.8812L35.4205 22.4432L34.5933 23.0052C34.8718 23.415 35.0227 23.9008 35.0227 24.5H36.0227ZM35.4205 22.4432L36.2557 21.8934C35.74 21.1098 34.9985 20.5259 34.0888 20.1207L33.6818 21.0341L33.2748 21.9475C33.8955 22.2241 34.3131 22.5796 34.5852 22.993L35.4205 22.4432ZM33.6818 21.0341L34.0922 20.1222C33.1735 19.7088 32.109 19.5227 30.9318 19.5227V20.5227V21.5227C31.9061 21.5227 32.675 21.6776 33.2715 21.946L33.6818 21.0341ZM30.9318 20.5227V19.5227H28.9659V20.5227V21.5227H30.9318V20.5227ZM28.9659 20.5227H29.9659V17.6591H28.9659H27.9659V20.5227H28.9659ZM28.9659 17.6591V18.6591H30.9318V17.6591V16.6591H28.9659V17.6591ZM30.9318 17.6591V18.6591C31.9155 18.6591 32.8251 18.4819 33.6349 18.0958L33.2045 17.1932L32.7742 16.2905C32.281 16.5257 31.6754 16.6591 30.9318 16.6591V17.6591ZM33.2045 17.1932L33.6308 18.0978C34.4377 17.7175 35.099 17.1721 35.5803 16.455L34.75 15.8977L33.9197 15.3404C33.6586 15.7294 33.2896 16.0476 32.7782 16.2886L33.2045 17.1932ZM34.75 15.8977L35.5838 16.4498C36.0757 15.7069 36.3068 14.8547 36.3068 13.9318H35.3068H34.3068C34.3068 14.509 34.1667 14.9673 33.9162 15.3456L34.75 15.8977ZM35.3068 13.9318H36.3068C36.3068 13.0568 36.1071 12.2445 35.6703 11.5334L34.8182 12.0568L33.9661 12.5802C34.1808 12.9298 34.3068 13.3675 34.3068 13.9318H35.3068ZM34.8182 12.0568L35.6789 11.5477C35.2584 10.837 34.6588 10.2892 33.9109 9.90564L33.4545 10.7955L32.9982 11.6853C33.4321 11.9078 33.7416 12.2009 33.9575 12.566L34.8182 12.0568ZM33.4545 10.7955L33.9155 9.90805C33.1629 9.51705 32.3089 9.34091 31.3864 9.34091V10.3409V11.3409C32.0547 11.3409 32.5796 11.4678 32.9936 11.6829L33.4545 10.7955ZM31.3864 10.3409V9.34091C30.5022 9.34091 29.6599 9.50519 28.87 9.84113L29.2614 10.7614L29.6527 11.6816C30.181 11.4569 30.7554 11.3409 31.3864 11.3409V10.3409ZM29.2614 10.7614L28.8752 9.83892C28.08 10.1718 27.409 10.6644 26.8873 11.3213L27.6705 11.9432L28.4536 12.5651C28.7501 12.1916 29.1397 11.8964 29.6475 11.6838L29.2614 10.7614ZM27.6705 11.9432L26.8919 11.3157C26.336 12.0053 26.0508 12.8256 26.0123 13.7302L27.0114 13.7727L28.0105 13.8152C28.0326 13.2956 28.1867 12.8962 28.4491 12.5707L27.6705 11.9432ZM27.0114 13.7727V12.7727H23.6136V13.7727V14.7727H27.0114V13.7727ZM23.6136 13.7727L24.6132 13.8028C24.6453 12.7356 24.9556 11.8291 25.5318 11.0484L24.7273 10.4545L23.9227 9.86069C23.0898 10.9891 22.6577 12.2947 22.6141 13.7426L23.6136 13.7727ZM24.7273 10.4545L25.5288 11.0525C26.1334 10.2421 26.9367 9.59773 27.9641 9.12404L27.5455 8.21591L27.1268 7.30778C25.8209 7.90985 24.7454 8.75792 23.9257 9.85658L24.7273 10.4545ZM27.5455 8.21591L27.9641 9.12404C28.9859 8.65298 30.1363 8.40909 31.4318 8.40909V7.40909V6.40909C29.8788 6.40909 28.4384 6.70308 27.1268 7.30778L27.5455 8.21591ZM31.4318 7.40909V8.40909C32.7937 8.40909 33.9117 8.67474 34.8214 9.16456L35.2955 8.28409L35.7696 7.40362C34.5126 6.72678 33.0548 6.40909 31.4318 6.40909V7.40909ZM35.2955 8.28409L34.8287 9.16847C35.7762 9.66857 36.4775 10.3188 36.9661 11.1143L37.8182 10.5909L38.6703 10.0676C37.9771 8.9388 36.9965 8.05113 35.7622 7.39971L35.2955 8.28409ZM37.8182 10.5909L36.9691 11.1191C37.4667 11.9192 37.7109 12.7865 37.7046 13.7434L38.7045 13.75L39.7045 13.7566C39.7133 12.4257 39.3666 11.1869 38.6673 10.0627L37.8182 10.5909ZM38.7045 13.75L37.7046 13.7558C37.711 14.8562 37.4089 15.7307 36.8359 16.4395L37.6136 17.0682L38.3913 17.6968C39.288 16.5875 39.7133 15.2499 39.7045 13.7442L38.7045 13.75ZM37.6136 17.0682L36.8328 16.4435C36.2514 17.1702 35.475 17.668 34.4563 17.929L34.7045 18.8977L34.9528 19.8664C36.3584 19.5062 37.5213 18.7844 38.3945 17.6929L37.6136 17.0682ZM34.7045 18.8977H33.7045V19.0795H34.7045H35.7045V18.8977H34.7045ZM34.7045 19.0795L34.5543 20.0682C35.9115 20.2744 36.8724 20.7948 37.5354 21.5703L38.2955 20.9205L39.0555 20.2706C38.0215 19.0612 36.5885 18.3544 34.8548 18.0909L34.7045 19.0795ZM38.2955 20.9205L37.5382 21.5736C38.2172 22.3607 38.5747 23.349 38.5682 24.6085L39.5682 24.6136L40.5682 24.6188C40.5768 22.9389 40.0859 21.4651 39.0527 20.2673L38.2955 20.9205ZM39.5682 24.6136L38.5682 24.6196C38.5746 25.6971 38.2792 26.6392 37.6842 27.4785L38.5 28.0568L39.3158 28.6352C40.1602 27.4441 40.5769 26.0908 40.5682 24.6077L39.5682 24.6136ZM38.5 28.0568L37.6813 27.4825C37.0788 28.3415 36.2466 29.0334 35.1524 29.5504L35.5795 30.4545L36.0067 31.3587C37.3821 30.709 38.497 29.8024 39.3187 28.6311L38.5 28.0568ZM35.5795 30.4545L35.157 29.5482C34.0748 30.0528 32.8101 30.3182 31.3409 30.3182V31.3182V32.3182C33.0535 32.3182 34.6145 32.0078 36.0021 31.3609L35.5795 30.4545Z" fill="black" mask="url(#path-1-outside-1_2_288)"/>
<mask id="path-3-outside-2_2_288" maskUnits="userSpaceOnUse" x="89" y="164" width="40" height="27" fill="black">
<rect fill="white" x="89" y="164" width="40" height="27"/>
<path d="M120.875 169.909V185.273H117.818V169.909H120.875ZM127.023 176.068V179.114H111.659V176.068H127.023ZM98.6591 165.682C100.22 165.682 101.614 165.951 102.841 166.489C104.061 167.027 105.027 167.773 105.739 168.727C106.443 169.689 106.822 170.803 106.875 172.068H103.307C103.261 171.379 103.03 170.78 102.614 170.273C102.189 169.773 101.636 169.386 100.955 169.114C100.273 168.841 99.5152 168.705 98.6818 168.705C97.7652 168.705 96.9545 168.864 96.25 169.182C95.5379 169.5 94.9811 169.943 94.5795 170.511C94.178 171.087 93.9773 171.75 93.9773 172.5C93.9773 173.28 94.178 173.966 94.5795 174.557C94.9735 175.155 95.553 175.625 96.3182 175.966C97.0758 176.307 97.9924 176.477 99.0682 176.477H101.034V179.341H99.0682C98.2045 179.341 97.447 179.496 96.7955 179.807C96.1364 180.117 95.6212 180.549 95.25 181.102C94.8788 181.663 94.6932 182.318 94.6932 183.068C94.6932 183.788 94.8561 184.413 95.1818 184.943C95.5 185.481 95.9545 185.902 96.5455 186.205C97.1288 186.508 97.8182 186.659 98.6136 186.659C99.3712 186.659 100.08 186.519 100.739 186.239C101.39 185.966 101.92 185.572 102.33 185.057C102.739 184.549 102.958 183.939 102.989 183.227H106.386C106.348 184.485 105.977 185.591 105.273 186.545C104.561 187.5 103.621 188.246 102.455 188.784C101.288 189.322 99.9924 189.591 98.5682 189.591C97.0758 189.591 95.7879 189.299 94.7045 188.716C93.6136 188.14 92.7727 187.371 92.1818 186.409C91.5833 185.447 91.2879 184.394 91.2955 183.25C91.2879 181.947 91.6515 180.841 92.3864 179.932C93.1136 179.023 94.0833 178.413 95.2955 178.102V177.92C93.75 177.686 92.553 177.072 91.7045 176.08C90.8485 175.087 90.4242 173.856 90.4318 172.386C90.4242 171.106 90.7803 169.958 91.5 168.943C92.2121 167.928 93.1856 167.129 94.4205 166.545C95.6553 165.97 97.0682 165.682 98.6591 165.682Z"/>
</mask>
<path d="M120.875 169.909V185.273H117.818V169.909H120.875ZM127.023 176.068V179.114H111.659V176.068H127.023ZM98.6591 165.682C100.22 165.682 101.614 165.951 102.841 166.489C104.061 167.027 105.027 167.773 105.739 168.727C106.443 169.689 106.822 170.803 106.875 172.068H103.307C103.261 171.379 103.03 170.78 102.614 170.273C102.189 169.773 101.636 169.386 100.955 169.114C100.273 168.841 99.5152 168.705 98.6818 168.705C97.7652 168.705 96.9545 168.864 96.25 169.182C95.5379 169.5 94.9811 169.943 94.5795 170.511C94.178 171.087 93.9773 171.75 93.9773 172.5C93.9773 173.28 94.178 173.966 94.5795 174.557C94.9735 175.155 95.553 175.625 96.3182 175.966C97.0758 176.307 97.9924 176.477 99.0682 176.477H101.034V179.341H99.0682C98.2045 179.341 97.447 179.496 96.7955 179.807C96.1364 180.117 95.6212 180.549 95.25 181.102C94.8788 181.663 94.6932 182.318 94.6932 183.068C94.6932 183.788 94.8561 184.413 95.1818 184.943C95.5 185.481 95.9545 185.902 96.5455 186.205C97.1288 186.508 97.8182 186.659 98.6136 186.659C99.3712 186.659 100.08 186.519 100.739 186.239C101.39 185.966 101.92 185.572 102.33 185.057C102.739 184.549 102.958 183.939 102.989 183.227H106.386C106.348 184.485 105.977 185.591 105.273 186.545C104.561 187.5 103.621 188.246 102.455 188.784C101.288 189.322 99.9924 189.591 98.5682 189.591C97.0758 189.591 95.7879 189.299 94.7045 188.716C93.6136 188.14 92.7727 187.371 92.1818 186.409C91.5833 185.447 91.2879 184.394 91.2955 183.25C91.2879 181.947 91.6515 180.841 92.3864 179.932C93.1136 179.023 94.0833 178.413 95.2955 178.102V177.92C93.75 177.686 92.553 177.072 91.7045 176.08C90.8485 175.087 90.4242 173.856 90.4318 172.386C90.4242 171.106 90.7803 169.958 91.5 168.943C92.2121 167.928 93.1856 167.129 94.4205 166.545C95.6553 165.97 97.0682 165.682 98.6591 165.682Z" fill="white"/>
<path d="M120.875 169.909H121.875V168.909H120.875V169.909ZM120.875 185.273V186.273H121.875V185.273H120.875ZM117.818 185.273H116.818V186.273H117.818V185.273ZM117.818 169.909V168.909H116.818V169.909H117.818ZM127.023 176.068H128.023V175.068H127.023V176.068ZM127.023 179.114V180.114H128.023V179.114H127.023ZM111.659 179.114H110.659V180.114H111.659V179.114ZM111.659 176.068V175.068H110.659V176.068H111.659ZM120.875 169.909H119.875V185.273H120.875H121.875V169.909H120.875ZM120.875 185.273V184.273H117.818V185.273V186.273H120.875V185.273ZM117.818 185.273H118.818V169.909H117.818H116.818V185.273H117.818ZM117.818 169.909V170.909H120.875V169.909V168.909H117.818V169.909ZM127.023 176.068H126.023V179.114H127.023H128.023V176.068H127.023ZM127.023 179.114V178.114H111.659V179.114V180.114H127.023V179.114ZM111.659 179.114H112.659V176.068H111.659H110.659V179.114H111.659ZM111.659 176.068V177.068H127.023V176.068V175.068H111.659V176.068ZM102.841 166.489L103.244 165.574L103.242 165.573L102.841 166.489ZM105.739 168.727L106.545 168.136L106.54 168.129L105.739 168.727ZM106.875 172.068V173.068H107.918L107.874 172.026L106.875 172.068ZM103.307 172.068L102.309 172.134L102.371 173.068H103.307V172.068ZM102.614 170.273L103.387 169.638L103.381 169.632L103.376 169.626L102.614 170.273ZM100.955 169.114L100.583 170.042H100.583L100.955 169.114ZM96.25 169.182L96.6579 170.095L96.6616 170.093L96.25 169.182ZM94.5795 170.511L93.7629 169.934L93.7593 169.939L94.5795 170.511ZM94.5795 174.557L95.4148 174.007L95.4108 174.001L95.4067 173.995L94.5795 174.557ZM96.3182 175.966L96.7285 175.054L96.7252 175.052L96.3182 175.966ZM101.034 176.477H102.034V175.477H101.034V176.477ZM101.034 179.341V180.341H102.034V179.341H101.034ZM96.7955 179.807L97.2218 180.711L97.2258 180.709L96.7955 179.807ZM95.25 181.102L94.4197 180.545L94.4162 180.55L95.25 181.102ZM95.1818 184.943L96.0425 184.434L96.0383 184.427L96.0339 184.42L95.1818 184.943ZM96.5455 186.205L97.0065 185.317L97.0018 185.315L96.5455 186.205ZM100.739 186.239L100.352 185.316L100.347 185.318L100.739 186.239ZM102.33 185.057L101.551 184.429L101.546 184.435L102.33 185.057ZM102.989 183.227V182.227H102.03L101.99 183.185L102.989 183.227ZM106.386 183.227L107.386 183.257L107.417 182.227H106.386V183.227ZM105.273 186.545L106.074 187.143L106.077 187.139L105.273 186.545ZM102.455 188.784L102.036 187.876V187.876L102.455 188.784ZM94.7045 188.716L95.1787 187.835L95.1713 187.832L94.7045 188.716ZM92.1818 186.409L93.034 185.886L93.0309 185.881L92.1818 186.409ZM91.2955 183.25L92.2955 183.257L92.2954 183.244L91.2955 183.25ZM92.3864 179.932L93.1641 180.56L93.1672 180.557L92.3864 179.932ZM95.2955 178.102L95.5437 179.071L96.2955 178.878V178.102H95.2955ZM95.2955 177.92H96.2955V177.061L95.4457 176.932L95.2955 177.92ZM91.7045 176.08L92.4646 175.43L92.4618 175.426L91.7045 176.08ZM90.4318 172.386L91.4319 172.392L91.4318 172.38L90.4318 172.386ZM91.5 168.943L92.3158 169.522L92.3187 169.517L91.5 168.943ZM94.4205 166.545L93.9979 165.639L93.9933 165.641L94.4205 166.545ZM98.6591 165.682V166.682C100.104 166.682 101.358 166.931 102.439 167.405L102.841 166.489L103.242 165.573C101.869 164.971 100.335 164.682 98.6591 164.682V165.682ZM102.841 166.489L102.437 167.404C103.519 167.88 104.34 168.525 104.937 169.325L105.739 168.727L106.54 168.129C105.713 167.021 104.603 166.173 103.244 165.574L102.841 166.489ZM105.739 168.727L104.932 169.318C105.512 170.11 105.831 171.03 105.876 172.11L106.875 172.068L107.874 172.026C107.813 170.576 107.374 169.269 106.545 168.136L105.739 168.727ZM106.875 172.068V171.068H103.307V172.068V173.068H106.875V172.068ZM103.307 172.068L104.305 172.002C104.246 171.116 103.943 170.316 103.387 169.638L102.614 170.273L101.841 170.907C102.118 171.245 102.277 171.641 102.309 172.134L103.307 172.068ZM102.614 170.273L103.376 169.626C102.834 168.987 102.141 168.511 101.326 168.185L100.955 169.114L100.583 170.042C101.132 170.262 101.544 170.558 101.851 170.92L102.614 170.273ZM100.955 169.114L101.326 168.185C100.511 167.859 99.6253 167.705 98.6818 167.705V168.705V169.705C99.405 169.705 100.034 169.823 100.583 170.042L100.955 169.114ZM98.6818 168.705V167.705C97.6492 167.705 96.6941 167.884 95.8384 168.27L96.25 169.182L96.6616 170.093C97.215 169.843 97.8811 169.705 98.6818 169.705V168.705ZM96.25 169.182L95.8421 168.269C94.9863 168.651 94.2801 169.202 93.7629 169.934L94.5795 170.511L95.3962 171.088C95.682 170.684 96.0894 170.349 96.6579 170.095L96.25 169.182ZM94.5795 170.511L93.7593 169.939C93.2326 170.695 92.9773 171.56 92.9773 172.5H93.9773H94.9773C94.9773 171.94 95.1235 171.48 95.3998 171.083L94.5795 170.511ZM93.9773 172.5H92.9773C92.9773 173.461 93.2279 174.347 93.7524 175.119L94.5795 174.557L95.4067 173.995C95.1282 173.585 94.9773 173.099 94.9773 172.5H93.9773ZM94.5795 174.557L93.7443 175.107C94.26 175.89 95.0015 176.474 95.9112 176.879L96.3182 175.966L96.7252 175.052C96.1045 174.776 95.6869 174.42 95.4148 174.007L94.5795 174.557ZM96.3182 175.966L95.9078 176.878C96.8265 177.291 97.891 177.477 99.0682 177.477V176.477V175.477C98.0939 175.477 97.325 175.322 96.7285 175.054L96.3182 175.966ZM99.0682 176.477V177.477H101.034V176.477V175.477H99.0682V176.477ZM101.034 176.477H100.034V179.341H101.034H102.034V176.477H101.034ZM101.034 179.341V178.341H99.0682V179.341V180.341H101.034V179.341ZM99.0682 179.341V178.341C98.0845 178.341 97.1749 178.518 96.3651 178.904L96.7955 179.807L97.2258 180.709C97.719 180.474 98.3246 180.341 99.0682 180.341V179.341ZM96.7955 179.807L96.3692 178.902C95.5623 179.282 94.901 179.828 94.4197 180.545L95.25 181.102L96.0803 181.66C96.3414 181.271 96.7104 180.952 97.2218 180.711L96.7955 179.807ZM95.25 181.102L94.4162 180.55C93.9243 181.293 93.6932 182.145 93.6932 183.068H94.6932H95.6932C95.6932 182.491 95.8333 182.033 96.0838 181.654L95.25 181.102ZM94.6932 183.068H93.6932C93.6932 183.943 93.8929 184.756 94.3297 185.467L95.1818 184.943L96.0339 184.42C95.8192 184.07 95.6932 183.633 95.6932 183.068H94.6932ZM95.1818 184.943L94.3211 185.452C94.7416 186.163 95.3412 186.711 96.0891 187.094L96.5455 186.205L97.0018 185.315C96.5679 185.092 96.2584 184.799 96.0425 184.434L95.1818 184.943ZM96.5455 186.205L96.0845 187.092C96.8371 187.483 97.6911 187.659 98.6136 187.659V186.659V185.659C97.9453 185.659 97.4204 185.532 97.0064 185.317L96.5455 186.205ZM98.6136 186.659V187.659C99.4978 187.659 100.34 187.495 101.13 187.159L100.739 186.239L100.347 185.318C99.819 185.543 99.2446 185.659 98.6136 185.659V186.659ZM100.739 186.239L101.125 187.161C101.92 186.828 102.591 186.336 103.113 185.679L102.33 185.057L101.546 184.435C101.25 184.808 100.86 185.104 100.352 185.316L100.739 186.239ZM102.33 185.057L103.108 185.684C103.664 184.995 103.949 184.174 103.988 183.27L102.989 183.227L101.99 183.185C101.967 183.704 101.813 184.104 101.551 184.429L102.33 185.057ZM102.989 183.227V184.227H106.386V183.227V182.227H102.989V183.227ZM106.386 183.227L105.387 183.197C105.355 184.264 105.044 185.171 104.468 185.952L105.273 186.545L106.077 187.139C106.91 186.011 107.342 184.705 107.386 183.257L106.386 183.227ZM105.273 186.545L104.471 185.947C103.867 186.758 103.063 187.402 102.036 187.876L102.455 188.784L102.873 189.692C104.179 189.09 105.255 188.242 106.074 187.143L105.273 186.545ZM102.455 188.784L102.036 187.876C101.014 188.347 99.8637 188.591 98.5682 188.591V189.591V190.591C100.121 190.591 101.562 190.297 102.873 189.692L102.455 188.784ZM98.5682 189.591V188.591C97.2063 188.591 96.0883 188.325 95.1786 187.835L94.7045 188.716L94.2304 189.596C95.4874 190.273 96.9452 190.591 98.5682 190.591V189.591ZM94.7045 188.716L95.1713 187.832C94.2238 187.331 93.5225 186.681 93.0339 185.886L92.1818 186.409L91.3297 186.932C92.0229 188.061 93.0035 188.949 94.2378 189.6L94.7045 188.716ZM92.1818 186.409L93.0309 185.881C92.5333 185.081 92.2891 184.214 92.2954 183.257L91.2955 183.25L90.2955 183.243C90.2867 184.574 90.6334 185.813 91.3327 186.937L92.1818 186.409ZM91.2955 183.25L92.2954 183.244C92.289 182.144 92.5911 181.269 93.1641 180.56L92.3864 179.932L91.6087 179.303C90.712 180.412 90.2867 181.75 90.2955 183.256L91.2955 183.25ZM92.3864 179.932L93.1672 180.557C93.7486 179.83 94.525 179.332 95.5437 179.071L95.2955 178.102L95.0472 177.134C93.6416 177.494 92.4787 178.216 91.6055 179.307L92.3864 179.932ZM95.2955 178.102H96.2955V177.92H95.2955H94.2955V178.102H95.2955ZM95.2955 177.92L95.4457 176.932C94.0885 176.726 93.1276 176.205 92.4646 175.43L91.7045 176.08L90.9445 176.729C91.9785 177.939 93.4115 178.646 95.1452 178.909L95.2955 177.92ZM91.7045 176.08L92.4618 175.426C91.7828 174.639 91.4253 173.651 91.4318 172.392L90.4318 172.386L89.4318 172.381C89.4232 174.061 89.9141 175.535 90.9473 176.733L91.7045 176.08ZM90.4318 172.386L91.4318 172.38C91.4254 171.303 91.7208 170.361 92.3158 169.522L91.5 168.943L90.6842 168.365C89.8398 169.556 89.4231 170.909 89.4318 172.392L90.4318 172.386ZM91.5 168.943L92.3187 169.517C92.9212 168.658 93.7534 167.967 94.8476 167.45L94.4205 166.545L93.9933 165.641C92.6179 166.291 91.503 167.198 90.6813 168.369L91.5 168.943ZM94.4205 166.545L94.843 167.452C95.9252 166.947 97.1899 166.682 98.6591 166.682V165.682V164.682C96.9465 164.682 95.3855 164.992 93.9979 165.639L94.4205 166.545Z" fill="black" mask="url(#path-3-outside-2_2_288)"/>
</svg>
