<svg width="67" height="89" viewBox="0 0 67 89" fill="none" xmlns="http://www.w3.org/2000/svg">
<rect x="23.6914" y="0.5" width="25" height="31" rx="4.5" fill="black" stroke="white"/>
<rect x="29.2295" y="9.75879" width="7.5" height="6.5" fill="#EA5A2A"/>
<rect x="29.2295" y="15.7588" width="8" height="6" fill="#489E52"/>
<path d="M36.2295 9.75879H43.7295V16.2588H36.2295V9.75879Z" fill="#F4C745"/>
<path d="M36.2295 15.7588H43.7295V21.7588H36.2295V15.7588Z" fill="#3684CC"/>
<rect x="-0.366143" y="15.573" width="25" height="31" rx="4.5" transform="rotate(-12.5 -0.366143 15.573)" fill="black" stroke="white"/>
<rect x="7.04468" y="23.4136" width="7.5" height="6.5" transform="rotate(-12.5 7.04468 23.4136)" fill="#EA5A2A"/>
<rect x="8.34326" y="29.2715" width="8" height="6" transform="rotate(-12.5 8.34326 29.2715)" fill="#489E52"/>
<path d="M13.8787 21.8984L21.2009 20.2751L22.6077 26.6211L15.2855 28.2444L13.8787 21.8984Z" fill="#F4C745"/>
<path d="M15.1772 27.7563L22.4995 26.1331L23.7981 31.9908L16.4759 33.6141L15.1772 27.7563Z" fill="#3684CC"/>
<rect x="9.63386" y="23.573" width="25" height="31" rx="4.5" transform="rotate(-12.5 9.63386 23.573)" fill="black" stroke="white"/>
<rect x="17.0447" y="31.4136" width="7.5" height="6.5" transform="rotate(-12.5 17.0447 31.4136)" fill="#EA5A2A"/>
<rect x="18.3433" y="37.2715" width="8" height="6" transform="rotate(-12.5 18.3433 37.2715)" fill="#489E52"/>
<path d="M23.8787 29.8984L31.2009 28.2751L32.6077 34.6211L25.2855 36.2444L23.8787 29.8984Z" fill="#F4C745"/>
<path d="M25.1772 35.7563L32.4995 34.1331L33.7981 39.9908L26.4759 41.6141L25.1772 35.7563Z" fill="#3684CC"/>
<rect x="42.3435" y="14.1619" width="25" height="31" rx="4.5" transform="rotate(12.5 42.3435 14.1619)" fill="black" stroke="white"/>
<rect x="45.7463" y="24.3999" width="7.5" height="6.5" transform="rotate(12.5 45.7463 24.3999)" fill="#EA5A2A"/>
<rect x="44.4478" y="30.2576" width="8" height="6" transform="rotate(12.5 44.4478 30.2576)" fill="#489E52"/>
<path d="M52.5803 25.915L59.9025 27.5383L58.4957 33.8843L51.1735 32.261L52.5803 25.915Z" fill="#F4C745"/>
<path d="M51.2817 31.7727L58.604 33.396L57.3053 39.2538L49.9831 37.6305L51.2817 31.7727Z" fill="#3684CC"/>
<path fill-rule="evenodd" clip-rule="evenodd" d="M44.0305 48.1767C43.8077 48.1391 43.4483 48.1697 43.0111 48.331C42.5152 48.5141 42.2411 48.7617 42.1099 48.9758C41.9941 49.1646 41.9244 49.427 42.032 49.8394C42.8838 53.1022 42.9911 56.922 43.0027 58.2965C43.0181 60.1353 40.7712 60.5742 39.7128 59.3839C37.8029 57.2357 35.4774 55.8838 32.7967 55.6473C31.9371 55.5716 31.2322 56.2144 31.259 57.0518C31.2786 57.6623 31.4337 58.0317 31.6117 58.2637C31.7831 58.4871 32.0909 58.7339 32.7045 58.9107C34.4431 59.4116 35.9088 60.3134 36.9276 61.5794C37.9537 62.8544 38.4441 64.3988 38.3831 66.0274C38.297 68.3306 36.3823 69.8905 34.2776 70.0587C31.9617 70.2439 30.0028 69.2448 28.7729 67.6418C27.5751 66.0803 27.1155 64.0212 27.4958 62.0338C27.6067 61.4543 27.4872 61.2048 27.4264 61.1144C27.3619 61.0184 27.1744 60.8224 26.6234 60.6791C26.0277 60.5243 25.2839 60.8259 24.9553 61.6489C23.527 65.2269 23.9418 68.4805 25.5404 71.3108C26.5707 73.1349 28.8929 75.1384 31.7437 76.8135C34.5668 78.4721 37.6091 79.6332 39.8161 79.9526C41.5742 80.2069 43.5601 79.3935 45.5118 77.8262C47.4224 76.2919 49.0241 74.2501 49.9502 72.646C54.0621 65.524 55.32 58.3553 54.6058 54.5586C54.5701 54.3685 54.4696 54.2223 54.2769 54.0963C54.0592 53.9539 53.7512 53.8644 53.4489 53.8709C52.9021 53.8826 52.6413 54.0256 52.5003 54.1539C52.3487 54.2918 52.1639 54.5709 52.08 55.1527C51.8589 56.6844 51.3391 58.163 51.0233 58.971C50.3191 60.7721 47.7069 60.2474 47.4194 58.4505C46.9555 55.5499 46.1847 51.4206 44.3605 48.405C44.2973 48.3004 44.2451 48.2598 44.2165 48.2411C44.1842 48.22 44.1291 48.1934 44.0305 48.1767ZM44.4544 44.9615C45.5268 45.1427 46.5564 45.735 47.2289 46.8467C48.2702 48.5681 49.0066 50.5321 49.5418 52.4251C49.7141 52.172 49.9163 51.936 50.1516 51.7218C50.9808 50.9671 52.0576 50.6327 53.2202 50.6077C55.0075 50.5693 57.4339 51.624 57.9024 54.1154C58.8055 58.9167 57.2179 66.849 52.8908 74.3437C51.8028 76.2282 49.9644 78.5764 47.7147 80.3829C45.5061 82.1564 42.6115 83.6345 39.4743 83.1807C36.6776 82.776 33.192 81.3977 30.1108 79.5874C27.0574 77.7934 24.0989 75.3984 22.6201 72.7804C20.5344 69.0878 20.038 64.8182 21.8233 60.346C22.6354 58.3116 24.8474 56.8785 27.3467 57.528C27.5577 57.5829 27.7665 57.6482 27.9711 57.7248C27.9366 57.4859 27.9162 57.2447 27.9085 57.0027C27.8204 54.255 30.1478 52.1501 32.9454 52.3968C35.4098 52.6142 37.6009 53.5106 39.4883 54.8568C39.3656 53.4748 39.1528 51.9124 38.7852 50.5047C38.4734 49.3101 38.6245 48.1648 39.2105 47.2089C39.7811 46.2782 40.6898 45.6441 41.6981 45.272C42.4767 44.9847 43.4532 44.7924 44.4544 44.9615ZM30.8917 61.6639C30.8985 62.0323 30.8631 62.4043 30.7924 62.7738C30.5684 63.9446 30.8644 65.036 31.4254 65.7673C31.9545 66.4571 32.7577 66.893 33.8505 66.8057C34.5771 66.7476 35.0152 66.2386 35.0332 65.7583C35.0669 64.8582 34.8028 64.111 34.3254 63.5177C33.8408 62.9155 33.0541 62.3722 31.8915 62.0372C31.5428 61.9367 31.2084 61.8127 30.8917 61.6639Z" fill="black"/>
</svg>
