<svg width="60" height="89" viewBox="0 0 60 89" fill="none" xmlns="http://www.w3.org/2000/svg">
<rect x="18.6914" y="0.5" width="25" height="31" rx="4.5" fill="black" stroke="white"/>
<rect x="24.2295" y="9.75879" width="7.5" height="6.5" fill="#EA5A2A"/>
<rect x="24.2295" y="15.7588" width="8" height="6" fill="#489E52"/>
<path d="M31.2295 9.75879H38.7295V16.2588H31.2295V9.75879Z" fill="#F4C745"/>
<path d="M31.2295 15.7588H38.7295V21.7588H31.2295V15.7588Z" fill="#3684CC"/>
<path fill-rule="evenodd" clip-rule="evenodd" d="M39.0308 48.177C38.8079 48.1393 38.4486 48.1699 38.0113 48.3313C37.5154 48.5143 37.2414 48.762 37.1101 48.976C36.9944 49.1648 36.9246 49.4273 37.0322 49.8396C37.884 53.1024 37.9914 56.9223 38.003 58.2967C38.0184 60.1355 35.7714 60.5745 34.7131 59.3842C32.8031 57.236 30.4777 55.884 27.7969 55.6476C26.9373 55.5719 26.2325 56.2146 26.2593 57.052C26.2789 57.6625 26.4339 58.032 26.6119 58.2639C26.7834 58.4873 27.0911 58.7342 27.7047 58.9109C29.4433 59.4118 30.909 60.3136 31.9279 61.5797C32.9539 62.8547 33.4443 64.3991 33.3834 66.0276C33.2973 68.3309 31.3826 69.8907 29.2778 70.059C26.962 70.2442 25.003 69.245 23.7732 67.642C22.5754 66.0805 22.1158 64.0215 22.496 62.034C22.6069 61.4546 22.4875 61.2051 22.4267 61.1147C22.3621 61.0187 22.1746 60.8226 21.6237 60.6794C21.0279 60.5245 20.2841 60.8261 19.9556 61.6491C18.5272 65.2272 18.942 68.4808 20.5406 71.311C21.5709 73.1352 23.8931 75.1387 26.744 76.8137C29.567 78.4723 32.6094 79.6335 34.8164 79.9528C36.5745 80.2072 38.5604 79.3937 40.5121 77.8265C42.4227 76.2922 44.0244 74.2504 44.9505 72.6463C49.0624 65.5243 50.3202 58.3555 49.6061 54.5588C49.5703 54.3688 49.4698 54.2225 49.2771 54.0965C49.0594 53.9542 48.7515 53.8646 48.4492 53.8711C47.9023 53.8828 47.6415 54.0259 47.5006 54.1541C47.349 54.292 47.1642 54.5712 47.0802 55.153C46.8592 56.6846 46.3393 58.1633 46.0235 58.9712C45.3193 60.7724 42.7071 60.2476 42.4197 58.4507C41.9558 55.5501 41.1849 51.4208 39.3607 48.4052C39.2975 48.3007 39.2453 48.26 39.2167 48.2413C39.1844 48.2203 39.1293 48.1937 39.0308 48.177ZM39.4546 44.9618C40.527 45.143 41.5566 45.7352 42.2291 46.8469C43.2704 48.5684 44.0069 50.5324 44.542 52.4254C44.7144 52.1722 44.9166 51.9362 45.1518 51.7221C45.981 50.9674 47.0578 50.6329 48.2205 50.6079C50.0078 50.5695 52.4341 51.6243 52.9027 54.1156C53.8057 58.917 52.2181 66.8493 47.891 74.344C46.803 76.2284 44.9647 78.5766 42.715 80.3831C40.5064 82.1567 37.6118 83.6348 34.4745 83.1809C31.6778 82.7763 28.1923 81.398 25.111 79.5876C22.0576 77.7937 19.0991 75.3987 17.6204 72.7807C15.5346 69.088 15.0382 64.8184 16.8235 60.3462C17.6356 58.3118 19.8476 56.8787 22.3469 57.5283C22.5579 57.5831 22.7668 57.6484 22.9713 57.7251C22.9368 57.4861 22.9165 57.245 22.9087 57.003C22.8207 54.2553 25.148 52.1503 27.9456 52.3971C30.41 52.6144 32.6011 53.5108 34.4886 54.8571C34.3659 53.4751 34.153 51.9126 33.7855 50.505C33.4736 49.3103 33.6247 48.165 34.2108 47.2091C34.7814 46.2784 35.6901 45.6444 36.6984 45.2722C37.477 44.9849 38.4535 44.7926 39.4546 44.9618ZM25.892 61.6641C25.8987 62.0325 25.8633 62.4046 25.7926 62.774C25.5686 63.9449 25.8646 65.0363 26.4257 65.7675C26.9548 66.4573 27.7579 66.8933 28.8507 66.8059C29.5773 66.7478 30.0155 66.2389 30.0334 65.7585C30.0671 64.8584 29.8031 64.1113 29.3257 63.518C28.841 62.9157 28.0544 62.3724 26.8918 62.0375C26.543 61.9369 26.2086 61.8129 25.892 61.6641Z" fill="black"/>
<rect x="-0.365899" y="21.5725" width="25" height="31" rx="4.5" transform="rotate(-12.5 -0.365899 21.5725)" fill="black" stroke="white"/>
<rect x="7.04492" y="29.4131" width="7.5" height="6.5" transform="rotate(-12.5 7.04492 29.4131)" fill="#EA5A2A"/>
<rect x="8.34375" y="35.2709" width="8" height="6" transform="rotate(-12.5 8.34375 35.2709)" fill="#489E52"/>
<path d="M13.8789 27.8981L21.2011 26.2748L22.608 32.6207L15.2858 34.244L13.8789 27.8981Z" fill="#F4C745"/>
<path d="M15.1777 33.7559L22.5 32.1326L23.7986 37.9903L16.4764 39.6136L15.1777 33.7559Z" fill="#3684CC"/>
<rect x="35.3437" y="12.1619" width="25" height="31" rx="4.5" transform="rotate(12.5 35.3437 12.1619)" fill="black" stroke="white"/>
<rect x="38.7461" y="22.3999" width="7.5" height="6.5" transform="rotate(12.5 38.7461 22.3999)" fill="#EA5A2A"/>
<rect x="37.4482" y="28.2577" width="8" height="6" transform="rotate(12.5 37.4482 28.2577)" fill="#489E52"/>
<path d="M45.5811 23.915L52.9033 25.5383L51.4964 31.8843L44.1742 30.261L45.5811 23.915Z" fill="#F4C745"/>
<path d="M44.2822 29.7728L51.6044 31.3961L50.3058 37.2539L42.9836 35.6306L44.2822 29.7728Z" fill="#3684CC"/>
</svg>
