<?xml version="1.0" encoding="UTF-8" standalone="no"?><!DOCTYPE svg PUBLIC "-//W3C//DTD SVG 1.1//EN" "http://www.w3.org/Graphics/SVG/1.1/DTD/svg11.dtd"><svg width="100%" height="100%" viewBox="0 0 500 700" version="1.1" xmlns="http://www.w3.org/2000/svg" xmlns:xlink="http://www.w3.org/1999/xlink" xml:space="preserve" xmlns:serif="http://www.serif.com/" style="fill-rule:evenodd;clip-rule:evenodd;stroke-linecap:round;stroke-linejoin:round;stroke-miterlimit:1.5;"><rect id="BackOfCard" x="0" y="0" width="500" height="700" style="fill:none;"/><clipPath id="_clip1"><rect id="BackOfCard1" serif:id="BackOfCard" x="0" y="0" width="500" height="700"/></clipPath><g clip-path="url(#_clip1)"><g id="Base"><path id="White-Base" serif:id="White Base" d="M472.147,0c15.383,0 27.853,12.47 27.853,27.853c-0,112.396 -0,531.897 -0,644.293c-0,15.383 -12.47,27.853 -27.853,27.853c-87.576,0 -356.717,0 -444.293,0c-15.383,-0 -27.853,-12.47 -27.853,-27.853c0,-112.396 0,-531.897 0,-644.293c0,-15.383 12.47,-27.853 27.853,-27.853c87.576,-0 356.717,-0 444.293,-0Z" style="fill:#fff;"/><path id="Color-Base" serif:id="Color Base" d="M457.753,10c17.81,0 32.247,14.438 32.247,32.247l-0,615.505c0,17.81 -14.438,32.247 -32.247,32.247l-415.505,0c-17.81,-0 -32.247,-14.438 -32.247,-32.247l0,-615.505c-0,-17.81 14.438,-32.247 32.247,-32.247l415.505,-0Z"/><g><path id="Oval-Base" serif:id="Oval Base" d="M109.89,250.287c110.879,-155.916 264.033,-237.602 341.795,-182.302c77.762,55.301 50.876,226.782 -60.004,382.697c-110.879,155.916 -264.033,237.602 -341.795,182.302c-77.762,-55.301 -50.876,-226.782 60.004,-382.697Z" style="fill:#fff;"/><g id="Four-Colors-2" serif:id="Four Colors 2"><path d="M437.907,95.005l-193.078,255.188l-115.632,-87.489c106.634,-140.936 244.849,-216.018 308.71,-167.699Z" style="fill:#ffc600;"/><path d="M128.914,262.184l115.454,87.723l-193.595,254.796c-63.764,-48.448 -28.779,-201.799 78.141,-342.519Z" style="fill:#2a55f1;"/><path d="M360.609,437.872l-115.688,-87.415l192.916,-255.311c63.893,48.278 29.316,201.721 -77.228,342.726Z" style="fill:#008213;"/><path d="M50.809,604.595l193.6,-254.792l115.453,87.725c-106.922,140.718 -245.29,215.516 -309.053,167.067Z" style="fill:#f00;"/></g></g><path id="Oval-Base1" serif:id="Oval Base" d="M109.89,250.287c110.879,-155.916 264.033,-237.602 341.795,-182.302c77.762,55.301 50.876,226.782 -60.004,382.697c-110.879,155.916 -264.033,237.602 -341.795,182.302c-77.762,-55.301 -50.876,-226.782 60.004,-382.697Z" style="fill:#fff;"/><g id="Four-Colors" serif:id="Four Colors"><path d="M437.907,95.005l-193.078,255.188l-115.632,-87.489c106.634,-140.936 244.849,-216.018 308.71,-167.699Z" style="fill:#ffc600;"/><path d="M128.914,262.184l115.454,87.723l-193.595,254.796c-63.764,-48.448 -28.779,-201.799 78.141,-342.519Z" style="fill:#2a55f1;"/><path d="M360.609,437.872l-115.688,-87.415l192.916,-255.311c63.893,48.278 29.316,201.721 -77.228,342.726Z" style="fill:#008213;"/><path d="M50.809,604.595l193.6,-254.792l115.453,87.725c-106.922,140.718 -245.29,215.516 -309.053,167.067Z" style="fill:#f00;"/></g></g><g id="Base1" serif:id="Base"><path id="White-Base1" serif:id="White Base" d="M472.147,0c15.383,0 27.853,12.47 27.853,27.853c-0,112.396 -0,531.897 -0,644.293c-0,15.383 -12.47,27.853 -27.853,27.853c-87.576,0 -356.717,0 -444.293,0c-15.383,-0 -27.853,-12.47 -27.853,-27.853c0,-112.396 0,-531.897 0,-644.293c0,-15.383 12.47,-27.853 27.853,-27.853c87.576,-0 356.717,-0 444.293,-0Z" style="fill:#fff;"/><path id="Color-Base1" serif:id="Color Base" d="M457.753,10c17.81,0 32.247,14.438 32.247,32.247l-0,615.505c0,17.81 -14.438,32.247 -32.247,32.247l-415.505,0c-17.81,-0 -32.247,-14.438 -32.247,-32.247l0,-615.505c-0,-17.81 14.438,-32.247 32.247,-32.247l415.505,-0Z"/><path id="Oval-Base2" serif:id="Oval Base" d="M109.89,250.287c110.879,-155.916 264.033,-237.602 341.795,-182.302c77.762,55.301 50.876,226.782 -60.004,382.697c-110.879,155.916 -264.033,237.602 -341.795,182.302c-77.762,-55.301 -50.876,-226.782 60.004,-382.697Z" style="fill:#fff;"/><path id="Oval-Base3" serif:id="Oval Base" d="M134.198,267.574c103.535,-145.587 239.833,-226.635 304.179,-180.875c64.346,45.76 32.531,201.11 -71.004,346.697c-103.535,145.587 -239.833,226.635 -304.179,180.875c-64.346,-45.76 -32.531,-201.11 71.004,-346.697Z" style="fill:#f00;"/></g><g><path id="UNO-white-base" d="M83.785,295.864l18.688,-13.043l36.553,-5.705c7.178,7.486 7.544,93.985 25.709,88.535c-1.677,-27.201 -6.781,-53.95 -11.311,-80.774l20.473,-13.674l63.547,-10.035l21.447,19.731l-0.221,-11.976l22.362,-15.147l35.503,-4.128l4.319,13.338c43.634,-34.595 89.27,-33.587 115.466,18.598c31.664,59.693 -42.67,121.811 -100.236,99.36l-15.117,11.779l-34.031,6.018l-24.288,-24.35l1.38,16.387l-18.688,13.043l-37.497,6.441l-3.791,-10.712c-53.356,30.594 -89.653,26.982 -106.43,-15.77l-13.838,-87.915" style="fill:#fff;"/><path id="UNO-black" d="M88.411,299.852l14.908,-10.098l31.405,-5.49l13.722,75.099c13.841,19.124 26.066,18.514 21.215,-5.901l-8.986,-65.123l16.798,-11.57l58.295,-8.98l31.963,31.277l-2.545,-27.626l15.853,-10.834l32.982,-4.441l1.907,19.012c30.009,-26.564 59.272,-36.821 87.486,-24.133c33.832,25.482 43.909,55.525 25.396,91.056c-32.185,39.19 -64.493,50.439 -96.934,31.495l-1.362,4.098l-13.964,9.362l-27.835,4.226l-35.116,-33.375l3.913,30.356l-15.853,10.834l-30.46,4.754l-3.27,-14.914c-65.611,45.189 -90.99,24.82 -107.056,-10.727l-12.464,-78.357Z" style="stroke:#000;stroke-width:1px;"/><path id="U-white" d="M109.939,291.429l22.687,-4.012l12.25,73.209c4.291,28.789 51.658,19.594 46.424,-9.6l-10.041,-70.375l23.528,-3.907l11.201,74.786c-0.477,22.623 -7.944,40.569 -33.891,46.147c-32.653,8.238 -51.807,-3.769 -61.061,-30.621l-11.096,-75.626Z" style="fill:#fff;"/><path id="U-yellow" d="M113.092,293.528l16.491,-2.22l9.931,64.387c5.093,16.892 15.527,24.957 32.165,22.768c13.713,-2.441 22.04,-11.883 23.4,-30.38l-10.563,-66.172l16.491,-2.22l12.354,72.369c-0.314,53.809 -70.376,58.999 -89.909,16.151l-10.36,-74.682Z" style="fill:#ffc600;"/><path id="N-white" d="M230.833,390.071l23.528,-3.907l-10.777,-71.32l62.244,62.346l20.798,-2.539l-17.537,-113.124l-22.583,3.171l8.882,65.964l-60.98,-58.775l-21.743,3.276l18.169,114.909Z" style="fill:#fff;stroke:#000;stroke-width:1px;"/><path id="N-yellow" d="M232.299,385.132l-14.905,-106.823l16.491,-2.22l63.925,62.554l-8.992,-71.952l17.436,-2.957l16.482,107.872l-14.706,1.589l-69.287,-67.487l10.992,76.467l-17.436,2.957Z" style="fill:#ffc600;"/><path id="O-white" d="M324.479,323.178c-7.015,-39.919 7.377,-63.968 41.536,-73.361c35.653,-3.823 58.966,11.451 66.122,51.732c1.846,28.158 -6.598,49.892 -32.302,60.852c-42.13,12.581 -63.731,-5.798 -75.355,-39.223Z" style="fill:#fff;stroke:#000;stroke-width:1px;"/><path id="O-yellow" d="M327.209,321.81c-6.416,-36.772 6.774,-60.154 41.014,-69.159c22.418,-2.888 43.162,4.138 59.073,39.763c6.843,32.178 -0.713,56.291 -30.615,67.889c-34.436,11.29 -56.345,-4.211 -69.472,-38.493Z" style="fill:#ffc600;"/><path id="O-white1" serif:id="O-white" d="M346.326,319.062c-9.263,-28.534 4.335,-42.796 23.909,-48.239c19.058,-4.09 33.224,4.465 40.576,30.639c2.64,18.725 -2.392,33.145 -18.768,41.196c-21.171,6.642 -37.55,1.564 -45.717,-23.596Z" style="fill:#fff;"/><path id="O-black" d="M349.056,317.694c-5.289,-26.652 3.211,-39.853 21.602,-43.405c18.298,-4.004 30.986,3.627 35.846,27.492c3.745,17.801 -0.591,31.046 -15.829,38.147c-19.779,7.186 -33.927,0.454 -41.619,-22.234Z" style="stroke:#000;stroke-width:1px;"/><path id="O-white2" serif:id="O-white" d="M357.854,288.062c12.266,-2.131 21.585,3.57 27.644,17.939c3.471,18.1 1.882,27.112 -2.915,30.362c-11.928,6.049 -22.291,0.344 -29.429,-17.308c-3.839,-16.792 -1.746,-26.494 4.7,-30.994Z" style="fill:#fff;stroke:#000;stroke-width:1px;"/><path id="O-red" d="M360.486,294.362c7.79,-1.006 14.685,3.312 20.288,15.32c3.039,9.399 2.946,16.624 -0.927,21.221c-7.122,4.13 -13.968,-0.828 -20.601,-12.798c-4.107,-12.255 -2.942,-19.448 1.24,-23.742Z" style="fill:#f00;"/></g></g></svg>