<?xml version="1.0" encoding="UTF-8" standalone="no"?><!DOCTYPE svg PUBLIC "-//W3C//DTD SVG 1.1//EN" "http://www.w3.org/Graphics/SVG/1.1/DTD/svg11.dtd"><svg width="100%" height="100%" viewBox="0 0 500 700" version="1.1" xmlns="http://www.w3.org/2000/svg" xmlns:xlink="http://www.w3.org/1999/xlink" xml:space="preserve" xmlns:serif="http://www.serif.com/" style="fill-rule:evenodd;clip-rule:evenodd;stroke-linecap:round;stroke-linejoin:round;stroke-miterlimit:1.5;"><rect id="Artboard5" x="0" y="0" width="500" height="700" style="fill:none;"/><clipPath id="_clip1"><rect x="0" y="0" width="500" height="700"/></clipPath><g clip-path="url(#_clip1)"><g id="Base"><path id="White-Base" serif:id="White Base" d="M472.147,0c15.383,0 27.853,12.47 27.853,27.853c-0,112.396 -0,531.897 -0,644.293c-0,15.383 -12.47,27.853 -27.853,27.853c-87.576,0 -356.717,0 -444.293,0c-15.383,-0 -27.853,-12.47 -27.853,-27.853c0,-112.396 0,-531.897 0,-644.293c0,-15.383 12.47,-27.853 27.853,-27.853c87.576,-0 356.717,-0 444.293,-0Z" style="fill:#fff;"/><path id="Color-Base" serif:id="Color Base" d="M457.753,10c17.81,0 32.247,14.438 32.247,32.247l-0,615.505c0,17.81 -14.438,32.247 -32.247,32.247l-415.505,0c-17.81,-0 -32.247,-14.438 -32.247,-32.247l0,-615.505c-0,-17.81 14.438,-32.247 32.247,-32.247l415.505,-0Z" style="fill:#2a55f1;"/><path id="Oval-Base" serif:id="Oval Base" d="M109.89,250.287c110.879,-155.916 264.033,-237.602 341.795,-182.302c77.762,55.301 50.876,226.782 -60.004,382.697c-110.879,155.916 -264.033,237.602 -341.795,182.302c-77.762,-55.301 -50.876,-226.782 60.004,-382.697Z" style="fill:#fff;"/><g id="Top-NoNo-Sign" serif:id="Top NoNo Sign"><path d="M74.5,35c19.593,0 35.5,16.131 35.5,36c0,19.869 -15.907,36 -35.5,36c-19.593,0 -35.5,-16.131 -35.5,-36c0,-19.869 15.907,-36 35.5,-36Zm0,0c19.593,0 35.5,16.131 35.5,36c0,19.869 -15.907,36 -35.5,36c-19.593,0 -35.5,-16.131 -35.5,-36c0,-19.869 15.907,-36 35.5,-36Z" style="fill:#fff;stroke:#fff;stroke-width:13px;"/><path d="M48.548,95.564l49.522,-44.156" style="fill:none;stroke:#fff;stroke-width:13px;"/></g><g id="Top-NoNo-Sign1" serif:id="Top NoNo Sign"><path d="M427.5,590c19.593,0 35.5,16.131 35.5,36c0,19.869 -15.907,36 -35.5,36c-19.593,0 -35.5,-16.131 -35.5,-36c0,-19.869 15.907,-36 35.5,-36Zm0,0c19.593,0 35.5,16.131 35.5,36c0,19.869 -15.907,36 -35.5,36c-19.593,0 -35.5,-16.131 -35.5,-36c0,-19.869 15.907,-36 35.5,-36Z" style="fill:#fff;stroke:#fff;stroke-width:13px;"/><path d="M401.548,650.564l49.522,-44.156" style="fill:none;stroke:#fff;stroke-width:13px;"/></g><g id="Color-NoNo-Sign" serif:id="Color NoNo Sign"><path d="M257.5,252c58.227,0 105.5,47.273 105.5,105.5c0,58.227 -47.273,105.5 -105.5,105.5c-58.227,0 -105.5,-47.273 -105.5,-105.5c0,-58.227 47.273,-105.5 105.5,-105.5Zm0,26.375c43.67,0 79.125,35.455 79.125,79.125c0,43.67 -35.455,79.125 -79.125,79.125c-43.67,0 -79.125,-35.455 -79.125,-79.125c0,-43.67 35.455,-79.125 79.125,-79.125Z" style="stroke:#000;stroke-width:13px;"/><path d="M196.714,408.153l124.452,-103.705" style="fill:none;stroke:#000;stroke-width:38px;"/></g><g id="Color-NoNo-Sign1" serif:id="Color NoNo Sign"><path d="M247.5,245c58.227,0 105.5,47.273 105.5,105.5c0,58.227 -47.273,105.5 -105.5,105.5c-58.227,0 -105.5,-47.273 -105.5,-105.5c0,-58.227 47.273,-105.5 105.5,-105.5Zm0,26.375c43.67,0 79.125,35.455 79.125,79.125c0,43.67 -35.455,79.125 -79.125,79.125c-43.67,0 -79.125,-35.455 -79.125,-79.125c0,-43.67 35.455,-79.125 79.125,-79.125Z" style="fill:#2a55f1;stroke:#2a55f1;stroke-width:13px;"/><path d="M186.714,401.153l124.452,-103.705" style="fill:none;stroke:#2a55f1;stroke-width:38px;"/></g></g></g></svg>