<?xml version="1.0" encoding="UTF-8" standalone="no"?><!DOCTYPE svg PUBLIC "-//W3C//DTD SVG 1.1//EN" "http://www.w3.org/Graphics/SVG/1.1/DTD/svg11.dtd"><svg width="100%" height="100%" viewBox="0 0 500 700" version="1.1" xmlns="http://www.w3.org/2000/svg" xmlns:xlink="http://www.w3.org/1999/xlink" xml:space="preserve" xmlns:serif="http://www.serif.com/" style="fill-rule:evenodd;clip-rule:evenodd;stroke-linejoin:round;stroke-miterlimit:2;"><rect id="Artboard5" x="0" y="0" width="500" height="700" style="fill:none;"/><clipPath id="_clip1"><rect x="0" y="0" width="500" height="700"/></clipPath><g clip-path="url(#_clip1)"><g id="Base"><path id="White-Base" serif:id="White Base" d="M472.147,0c15.383,0 27.853,12.47 27.853,27.853c-0,112.396 -0,531.897 -0,644.293c-0,15.383 -12.47,27.853 -27.853,27.853c-87.576,0 -356.717,0 -444.293,0c-15.383,-0 -27.853,-12.47 -27.853,-27.853c0,-112.396 0,-531.897 0,-644.293c0,-15.383 12.47,-27.853 27.853,-27.853c87.576,-0 356.717,-0 444.293,-0Z" style="fill:#fff;"/><path id="Color-Base" serif:id="Color Base" d="M457.753,10c17.81,0 32.247,14.438 32.247,32.247l-0,615.505c0,17.81 -14.438,32.247 -32.247,32.247l-415.505,0c-17.81,-0 -32.247,-14.438 -32.247,-32.247l0,-615.505c-0,-17.81 14.438,-32.247 32.247,-32.247l415.505,-0Z" style="fill:#008213;"/><path id="Oval-Base" serif:id="Oval Base" d="M109.89,250.287c110.879,-155.916 264.033,-237.602 341.795,-182.302c77.762,55.301 50.876,226.782 -60.004,382.697c-110.879,155.916 -264.033,237.602 -341.795,182.302c-77.762,-55.301 -50.876,-226.782 60.004,-382.697Z" style="fill:#fff;"/></g><g id="Top-Number" serif:id="Top Number" transform="matrix(71.78952,0,0,71.78952,120.361932,86)"></g><text x="27.491px" y="86px" style="font-family:'AppleMyungjo';font-size:71.79px;fill:#fff;stroke:#fff;stroke-width:1px;">+2</text><g id="Top-Number1" serif:id="Top Number" transform="matrix(-1,0,-0,-1,1039.963144,1420.661075)"><g transform="matrix(71.78952,0,0,71.78952,659.133803,804.178334)"></g><text x="566.263px" y="804.178px" style="font-family:'AppleMyungjo';font-size:71.79px;fill:#fff;stroke:#fff;stroke-width:1px;">+2</text></g><g><path d="M99.645,437c-1.304,-0 -2.501,-0.72 -3.111,-1.872c-0.61,-1.152 -0.534,-2.547 0.198,-3.626c17.182,-25.312 88.237,-129.989 97.72,-143.959c0.655,-0.965 1.746,-1.543 2.913,-1.543c11.544,-0 73.43,-0 93.989,-0c1.304,0 2.501,0.72 3.111,1.872c0.61,1.152 0.534,2.547 -0.198,3.626c-17.182,25.312 -88.237,129.989 -97.72,143.959c-0.655,0.965 -1.746,1.543 -2.913,1.543c-11.544,0 -73.43,0 -93.989,0Z" style="fill:none;stroke:#000;stroke-width:1px;stroke-linecap:round;stroke-miterlimit:1.5;"/><path d="M112.104,430.907c-1.577,0.018 -3.033,-0.841 -3.78,-2.231c-0.746,-1.389 -0.659,-3.078 0.226,-4.383c17.445,-25.708 79.552,-117.235 89.189,-131.436c0.788,-1.162 2.101,-1.857 3.505,-1.857c10.891,0 58.484,0 77.683,0c1.575,0 3.019,0.873 3.751,2.268c0.732,1.394 0.629,3.079 -0.266,4.375c-17.63,25.527 -80.521,116.588 -90.167,130.554c-0.781,1.131 -2.062,1.812 -3.436,1.828c-10.69,0.123 -57.627,0.662 -76.704,0.882Z" style="fill:#008213;"/></g><g><path d="M208.645,373c-1.304,-0 -2.501,-0.72 -3.111,-1.872c-0.61,-1.152 -0.534,-2.547 0.198,-3.626c17.182,-25.312 88.237,-129.989 97.72,-143.959c0.655,-0.965 1.746,-1.543 2.913,-1.543c11.544,-0 73.43,-0 93.989,-0c1.304,0 2.501,0.72 3.111,1.872c0.61,1.152 0.534,2.547 -0.198,3.626c-17.182,25.312 -88.237,129.989 -97.72,143.959c-0.655,0.965 -1.746,1.543 -2.913,1.543c-11.544,0 -73.43,0 -93.989,0Z" style="fill:#fff;stroke:#000;stroke-width:1px;stroke-linecap:round;stroke-miterlimit:1.5;"/><path d="M221.104,366.907c-1.577,0.018 -3.033,-0.841 -3.78,-2.231c-0.746,-1.389 -0.659,-3.078 0.226,-4.383c17.445,-25.708 79.552,-117.235 89.189,-131.436c0.788,-1.162 2.101,-1.857 3.505,-1.857c10.891,0 58.484,0 77.683,0c1.575,0 3.019,0.873 3.751,2.268c0.732,1.394 0.629,3.079 -0.266,4.375c-17.63,25.527 -80.521,116.588 -90.167,130.554c-0.781,1.131 -2.062,1.812 -3.436,1.828c-10.69,0.123 -57.627,0.662 -76.704,0.882Z" style="fill:#008213;"/></g></g></svg>