<?xml version="1.0" encoding="UTF-8" standalone="no"?><!DOCTYPE svg PUBLIC "-//W3C//DTD SVG 1.1//EN" "http://www.w3.org/Graphics/SVG/1.1/DTD/svg11.dtd"><svg width="100%" height="100%" viewBox="0 0 500 700" version="1.1" xmlns="http://www.w3.org/2000/svg" xmlns:xlink="http://www.w3.org/1999/xlink" xml:space="preserve" xmlns:serif="http://www.serif.com/" style="fill-rule:evenodd;clip-rule:evenodd;stroke-linejoin:round;stroke-miterlimit:2;"><rect id="Artboard12" x="0" y="0" width="500" height="700" style="fill:none;"/><clipPath id="_clip1"><rect x="0" y="0" width="500" height="700"/></clipPath><g clip-path="url(#_clip1)"><g id="Base"><path id="White-Base" serif:id="White Base" d="M472.147,-0c15.383,0 27.853,12.47 27.853,27.853c-0,112.396 -0,531.897 -0,644.293c-0,15.383 -12.47,27.853 -27.853,27.853c-87.576,0 -356.717,0 -444.293,0c-15.383,-0 -27.853,-12.47 -27.853,-27.853c0,-112.396 0,-531.897 0,-644.293c0,-15.383 12.47,-27.853 27.853,-27.853c87.576,-0 356.717,-0 444.293,-0Z" style="fill:#fff;"/><path id="Color-Base" serif:id="Color Base" d="M457.753,10c17.81,0 32.247,14.438 32.247,32.247c0,114.531 0,500.974 0,615.505c0,17.81 -14.438,32.247 -32.247,32.247c-87.4,-0 -328.105,-0 -415.505,-0c-17.81,-0 -32.247,-14.438 -32.247,-32.247c0,-114.531 0,-500.974 0,-615.505c-0,-17.81 14.438,-32.247 32.247,-32.247c87.4,-0 328.105,-0 415.505,-0Z" style="fill:#008213;"/><path id="Oval-Base" serif:id="Oval Base" d="M109.89,250.287c110.879,-155.916 264.033,-237.602 341.795,-182.302c77.762,55.301 50.876,226.782 -60.004,382.697c-110.879,155.916 -264.033,237.602 -341.795,182.302c-77.762,-55.301 -50.876,-226.782 60.004,-382.697Z" style="fill:#fff;"/></g><g id="Bottom-Number" serif:id="Bottom Number" transform="matrix(-0.999996,-0.002922,0.002922,-0.999996,961.170061,1217.002962)"><g transform="matrix(71.78952,0,0,71.78952,527.349383,607.799285)"></g><text x="481.474px" y="607.799px" style="font-family:'AppleMyungjo';font-size:71.79px;fill:#fff;stroke:#fff;stroke-width:1px;">8</text></g><g id="Top-Number" serif:id="Top Number" transform="matrix(71.78952,0,0,71.78952,74.366061,86)"></g><text x="28.491px" y="86px" style="font-family:'AppleMyungjo';font-size:71.79px;fill:#fff;stroke:#fff;stroke-width:1px;">8</text><g id="Shadow-Number" serif:id="Shadow Number" transform="matrix(385.195749,0,0,385.195749,371.400561,487)"></g><text x="125.251px" y="487px" style="font-family:'AppleMyungjo';font-size:385.196px;">8</text><g id="Color-Number" serif:id="Color Number" transform="matrix(385.195749,0,0,385.195749,365.400561,481)"></g><text x="119.251px" y="481px" style="font-family:'AppleMyungjo';font-size:385.196px;fill:#008213;">8</text></g></svg>