<?xml version="1.0" encoding="UTF-8" standalone="no"?><!DOCTYPE svg PUBLIC "-//W3C//DTD SVG 1.1//EN" "http://www.w3.org/Graphics/SVG/1.1/DTD/svg11.dtd"><svg width="100%" height="100%" viewBox="0 0 500 700" version="1.1" xmlns="http://www.w3.org/2000/svg" xmlns:xlink="http://www.w3.org/1999/xlink" xml:space="preserve" xmlns:serif="http://www.serif.com/" style="fill-rule:evenodd;clip-rule:evenodd;stroke-linejoin:round;stroke-miterlimit:2;"><rect id="Artboard5" x="0" y="0" width="500" height="700" style="fill:none;"/><clipPath id="_clip1"><rect x="0" y="0" width="500" height="700"/></clipPath><g clip-path="url(#_clip1)"><g id="Base"><path id="White-Base" serif:id="White Base" d="M472.147,0c15.383,0 27.853,12.47 27.853,27.853c-0,112.396 -0,531.897 -0,644.293c-0,15.383 -12.47,27.853 -27.853,27.853c-87.576,0 -356.717,0 -444.293,0c-15.383,-0 -27.853,-12.47 -27.853,-27.853c0,-112.396 0,-531.897 0,-644.293c0,-15.383 12.47,-27.853 27.853,-27.853c87.576,-0 356.717,-0 444.293,-0Z" style="fill:#fff;"/><path id="Color-Base" serif:id="Color Base" d="M457.753,10c17.81,0 32.247,14.438 32.247,32.247l-0,615.505c0,17.81 -14.438,32.247 -32.247,32.247l-415.505,0c-17.81,-0 -32.247,-14.438 -32.247,-32.247l0,-615.505c-0,-17.81 14.438,-32.247 32.247,-32.247l415.505,-0Z" style="fill:#f00;"/><g><g id="Top-White-Reverse-Symbol" serif:id="Top White Reverse Symbol"><g id="White-Arrow" serif:id="White Arrow"><path d="M436.61,584.142l13.163,13.163l-39.319,39.319c0,0 -0,-0 -0.001,-0.001c-7.269,-7.269 -7.269,-19.055 0,-26.324c11.428,-11.428 26.157,-26.157 26.157,-26.157Z" style="fill:#fff;"/><path d="M459.91,573.541l-5.169,30.018l-24.849,-24.849l30.018,-5.169Z" style="fill:#fff;"/></g></g><g id="Top-White-Reverse-Symbol1" serif:id="Top White Reverse Symbol"><g id="White-Arrow1" serif:id="White Arrow"><path d="M423.406,655.444l-13.163,-13.163l39.319,-39.319c0,0 0,0 0.001,0.001c7.269,7.269 7.269,19.055 -0,26.324c-11.428,11.428 -26.157,26.157 -26.157,26.157Z" style="fill:#fff;"/><path d="M400.106,666.044l5.169,-30.018l24.849,24.849l-30.018,5.169Z" style="fill:#fff;"/></g></g></g><path id="Oval-Base" serif:id="Oval Base" d="M109.89,250.287c110.879,-155.916 264.033,-237.602 341.795,-182.302c77.762,55.301 50.876,226.782 -60.004,382.697c-110.879,155.916 -264.033,237.602 -341.795,182.302c-77.762,-55.301 -50.876,-226.782 60.004,-382.697Z" style="fill:#fff;"/><g><g id="Top-White-Reverse-Symbol2" serif:id="Top White Reverse Symbol"><g id="White-Arrow2" serif:id="White Arrow"><path d="M76.61,37.142l13.163,13.163l-39.319,39.319c0,-0 -0,-0 -0.001,-0.001c-7.269,-7.269 -7.269,-19.055 0,-26.324c11.428,-11.428 26.157,-26.157 26.157,-26.157Z" style="fill:#fff;"/><path d="M99.91,26.541l-5.169,30.018l-24.849,-24.849l30.018,-5.169Z" style="fill:#fff;"/></g></g><g id="Top-White-Reverse-Symbol3" serif:id="Top White Reverse Symbol"><g id="White-Arrow3" serif:id="White Arrow"><path d="M63.406,110.444l-13.163,-13.163l39.319,-39.319c-0,0 0,0 0.001,0.001c7.269,7.269 7.269,19.055 -0,26.324c-11.428,11.428 -26.157,26.157 -26.157,26.157Z" style="fill:#fff;"/><path d="M40.106,121.044l5.169,-30.018l24.849,24.849l-30.018,5.169Z" style="fill:#fff;"/></g></g></g><g id="Center-Reverse" serif:id="Center Reverse"><g><g id="Top-White-Reverse-Symbol4" serif:id="Top White Reverse Symbol"><g id="White-Arrow4" serif:id="White Arrow"><path d="M270.561,234.848l42.905,42.905l-128.158,128.158c0,-0 -13.428,-13.428 -25.26,-25.26c-4.68,-4.68 -7.309,-11.027 -7.309,-17.645c0,-6.618 2.629,-12.965 7.309,-17.645c35.14,-35.14 110.513,-110.513 110.513,-110.513Z"/><path d="M346.508,200.297l-16.848,97.842l-80.994,-80.994l97.842,-16.848Z"/></g></g><g id="Top-White-Reverse-Symbol5" serif:id="Top White Reverse Symbol"><g id="White-Arrow5" serif:id="White Arrow"><path d="M228.984,462.198l-42.905,-42.905l128.158,-128.158c0,0 13.428,13.428 25.26,25.26c4.68,4.68 7.309,11.027 7.309,17.645c-0,6.618 -2.629,12.965 -7.309,17.645c-35.14,35.14 -110.513,110.513 -110.513,110.513Z"/><path d="M153.038,496.75l16.848,-97.842l80.994,80.994l-97.842,16.848Z"/></g></g></g><g><g id="Top-White-Reverse-Symbol6" serif:id="Top White Reverse Symbol"><g id="White-Arrow6" serif:id="White Arrow"><path d="M260.334,233.387l42.905,42.905l-128.158,128.158c0,0 -13.428,-13.428 -25.26,-25.26c-4.68,-4.68 -7.309,-11.027 -7.309,-17.645c0,-6.618 2.629,-12.965 7.309,-17.645c35.14,-35.14 110.513,-110.513 110.513,-110.513Z" style="fill:#f00;"/><path d="M336.281,198.836l-16.848,97.842l-80.994,-80.994l97.842,-16.848Z" style="fill:#f00;"/></g></g><g id="Top-White-Reverse-Symbol7" serif:id="Top White Reverse Symbol"><g id="White-Arrow7" serif:id="White Arrow"><path d="M218.758,460.737l-42.905,-42.905l128.158,-128.158c0,-0 13.428,13.428 25.26,25.26c4.68,4.68 7.309,11.027 7.309,17.645c-0,6.618 -2.629,12.965 -7.309,17.645c-35.14,35.14 -110.513,110.513 -110.513,110.513Z" style="fill:#f00;"/><path d="M142.811,495.289l16.848,-97.842l80.994,80.994l-97.842,16.848Z" style="fill:#f00;"/></g></g></g></g></g></g></svg>