<?xml version="1.0" encoding="UTF-8" standalone="no"?><!DOCTYPE svg PUBLIC "-//W3C//DTD SVG 1.1//EN" "http://www.w3.org/Graphics/SVG/1.1/DTD/svg11.dtd"><svg width="100%" height="100%" viewBox="0 0 500 700" version="1.1" xmlns="http://www.w3.org/2000/svg" xmlns:xlink="http://www.w3.org/1999/xlink" xml:space="preserve" xmlns:serif="http://www.serif.com/" style="fill-rule:evenodd;clip-rule:evenodd;stroke-linejoin:round;stroke-miterlimit:2;"><rect id="Artboard5" x="0" y="0" width="500" height="700" style="fill:none;"/><clipPath id="_clip1"><rect x="0" y="0" width="500" height="700"/></clipPath><g clip-path="url(#_clip1)"><g id="Base"><path id="White-Base" serif:id="White Base" d="M472.147,0c15.383,0 27.853,12.47 27.853,27.853c-0,112.396 -0,531.897 -0,644.293c-0,15.383 -12.47,27.853 -27.853,27.853c-87.576,0 -356.717,0 -444.293,0c-15.383,-0 -27.853,-12.47 -27.853,-27.853c0,-112.396 0,-531.897 0,-644.293c0,-15.383 12.47,-27.853 27.853,-27.853c87.576,-0 356.717,-0 444.293,-0Z" style="fill:#fff;"/><path id="Color-Base" serif:id="Color Base" d="M457.753,10c17.81,0 32.247,14.438 32.247,32.247l-0,615.505c0,17.81 -14.438,32.247 -32.247,32.247l-415.505,0c-17.81,-0 -32.247,-14.438 -32.247,-32.247l0,-615.505c-0,-17.81 14.438,-32.247 32.247,-32.247l415.505,-0Z"/><g><path id="Oval-Base" serif:id="Oval Base" d="M109.89,250.287c110.879,-155.916 264.033,-237.602 341.795,-182.302c77.762,55.301 50.876,226.782 -60.004,382.697c-110.879,155.916 -264.033,237.602 -341.795,182.302c-77.762,-55.301 -50.876,-226.782 60.004,-382.697Z" style="fill:#fff;"/><g id="Four-Colors-2" serif:id="Four Colors 2"><path d="M437.907,95.005l-193.078,255.188l-115.632,-87.489c106.634,-140.936 244.849,-216.018 308.71,-167.699Z" style="fill:#ffc600;"/><path d="M128.914,262.184l115.454,87.723l-193.595,254.796c-63.764,-48.448 -28.779,-201.799 78.141,-342.519Z" style="fill:#2a55f1;"/><path d="M360.609,437.872l-115.688,-87.415l192.916,-255.311c63.893,48.278 29.316,201.721 -77.228,342.726Z" style="fill:#008213;"/><path d="M50.809,604.595l193.6,-254.792l115.453,87.725c-106.922,140.718 -245.29,215.516 -309.053,167.067Z" style="fill:#f00;"/></g></g><path id="Oval-Base1" serif:id="Oval Base" d="M109.89,250.287c110.879,-155.916 264.033,-237.602 341.795,-182.302c77.762,55.301 50.876,226.782 -60.004,382.697c-110.879,155.916 -264.033,237.602 -341.795,182.302c-77.762,-55.301 -50.876,-226.782 60.004,-382.697Z" style="fill:#fff;"/><g id="Four-Colors" serif:id="Four Colors"><path d="M437.907,95.005l-193.078,255.188l-115.632,-87.489c106.634,-140.936 244.849,-216.018 308.71,-167.699Z" style="fill:#ffc600;"/><path d="M128.914,262.184l115.454,87.723l-193.595,254.796c-63.764,-48.448 -28.779,-201.799 78.141,-342.519Z" style="fill:#2a55f1;"/><path d="M360.609,437.872l-115.688,-87.415l192.916,-255.311c63.893,48.278 29.316,201.721 -77.228,342.726Z" style="fill:#008213;"/><path d="M50.809,604.595l193.6,-254.792l115.453,87.725c-106.922,140.718 -245.29,215.516 -309.053,167.067Z" style="fill:#f00;"/></g></g><g id="Base1" serif:id="Base"><path id="White-Base1" serif:id="White Base" d="M472.147,0c15.383,0 27.853,12.47 27.853,27.853c-0,112.396 -0,531.897 -0,644.293c-0,15.383 -12.47,27.853 -27.853,27.853c-87.576,0 -356.717,0 -444.293,0c-15.383,-0 -27.853,-12.47 -27.853,-27.853c0,-112.396 0,-531.897 0,-644.293c0,-15.383 12.47,-27.853 27.853,-27.853c87.576,-0 356.717,-0 444.293,-0Z" style="fill:#fff;"/><path id="Color-Base1" serif:id="Color Base" d="M457.753,10c17.81,0 32.247,14.438 32.247,32.247l-0,615.505c0,17.81 -14.438,32.247 -32.247,32.247l-415.505,0c-17.81,-0 -32.247,-14.438 -32.247,-32.247l0,-615.505c-0,-17.81 14.438,-32.247 32.247,-32.247l415.505,-0Z"/><path id="Oval-Base2" serif:id="Oval Base" d="M109.89,250.287c110.879,-155.916 264.033,-237.602 341.795,-182.302c77.762,55.301 50.876,226.782 -60.004,382.697c-110.879,155.916 -264.033,237.602 -341.795,182.302c-77.762,-55.301 -50.876,-226.782 60.004,-382.697Z" style="fill:#fff;"/><path d="M437.907,95.005l-193.078,255.188l-115.632,-87.489c106.634,-140.936 244.849,-216.018 308.71,-167.699Z" style="fill:#ffc600;"/><path d="M128.914,262.184l115.454,87.723l-193.595,254.796c-63.764,-48.448 -28.779,-201.799 78.141,-342.519Z" style="fill:#2a55f1;"/><path d="M360.609,437.872l-115.688,-87.415l192.916,-255.311c63.893,48.278 29.316,201.721 -77.228,342.726Z" style="fill:#008213;"/><path d="M50.809,604.595l193.6,-254.792l115.453,87.725c-106.922,140.718 -245.29,215.516 -309.053,167.067Z" style="fill:#f00;"/><path id="Oval-Base3" serif:id="Oval Base" d="M43.862,49.188c12.138,-18.358 28.904,-27.975 37.416,-21.464c8.513,6.511 5.569,26.701 -6.569,45.059c-12.138,18.358 -28.904,27.975 -37.416,21.464c-8.513,-6.511 -5.569,-26.701 6.569,-45.059Z" style="fill:#fff;"/><path d="M79.77,30.905l-21.136,30.046l-12.658,-10.301c11.673,-16.594 26.803,-25.434 33.794,-19.745Z" style="fill:#ffc600;"/><path d="M45.944,50.588l12.639,10.329l-21.193,30c-6.98,-5.704 -3.15,-23.76 8.554,-40.328Z" style="fill:#2a55f1;"/><path d="M71.308,71.274l-12.664,-10.292l21.118,-30.06c6.994,5.684 3.209,23.751 -8.454,40.353Z" style="fill:#008213;"/><path d="M37.394,90.904l21.193,-29.999l12.639,10.329c-11.705,16.568 -26.852,25.375 -33.832,19.671Z" style="fill:#f00;"/><path id="Oval-Base4" serif:id="Oval Base" d="M425.862,623.188c12.138,-18.358 28.904,-27.975 37.416,-21.464c8.513,6.511 5.569,26.701 -6.569,45.059c-12.138,18.358 -28.904,27.975 -37.416,21.464c-8.513,-6.511 -5.569,-26.701 6.569,-45.059Z" style="fill:#fff;"/><path d="M461.77,604.905l-21.136,30.046l-12.658,-10.301c11.673,-16.594 26.803,-25.434 33.794,-19.745Z" style="fill:#ffc600;"/><path d="M427.944,624.588l12.639,10.329l-21.193,30c-6.98,-5.704 -3.15,-23.76 8.554,-40.328Z" style="fill:#2a55f1;"/><path d="M453.308,645.274l-12.664,-10.292l21.118,-30.06c6.994,5.684 3.209,23.751 -8.454,40.353Z" style="fill:#008213;"/><path d="M419.394,664.904l21.193,-29.999l12.639,10.329c-11.705,16.568 -26.852,25.375 -33.832,19.671Z" style="fill:#f00;"/></g></g></svg>